<?xml version="1.0" encoding="UTF-8" standalone="no"?>
<!-- Created with Inkscape (http://www.inkscape.org/) -->

<svg
   xmlns:dc="http://purl.org/dc/elements/1.1/"
   xmlns:cc="http://creativecommons.org/ns#"
   xmlns:rdf="http://www.w3.org/1999/02/22-rdf-syntax-ns#"
   xmlns:svg="http://www.w3.org/2000/svg"
   xmlns="http://www.w3.org/2000/svg"
   xmlns:sodipodi="http://sodipodi.sourceforge.net/DTD/sodipodi-0.dtd"
   xmlns:inkscape="http://www.inkscape.org/namespaces/inkscape"
   version="1.0"
   width="1539.4114"
   height="1000"
   viewBox="0 0 1539.4114 999.99998"
   id="svg2"
   xml:space="preserve"
   inkscape:version="0.47 r22583"
   sodipodi:docname="Spain Balearic Islands location map.svg"
   inkscape:export-filename="C:\Documents and Settings\akroeck\My Documents\Privat\Wikipedia\Spain Balearic Islands location map V04.png"
   inkscape:export-xdpi="90"
   inkscape:export-ydpi="90"><metadata
   id="metadata156"><rdf:RDF><cc:Work
       rdf:about=""><dc:format>image/svg+xml</dc:format><dc:type
         rdf:resource="http://purl.org/dc/dcmitype/StillImage" /><dc:title /></cc:Work></rdf:RDF></metadata><sodipodi:namedview
   pagecolor="#ffffff"
   bordercolor="#666666"
   borderopacity="1"
   objecttolerance="10"
   gridtolerance="10"
   guidetolerance="10"
   inkscape:pageopacity="0"
   inkscape:pageshadow="2"
   inkscape:window-width="1400"
   inkscape:window-height="1026"
   id="namedview154"
   showgrid="false"
   inkscape:zoom="1.3142043"
   inkscape:cx="752.4288"
   inkscape:cy="734.43459"
   inkscape:window-x="-4"
   inkscape:window-y="-4"
   inkscape:window-maximized="1"
   inkscape:current-layer="svg2" /><defs
   id="defs302"><inkscape:perspective
   sodipodi:type="inkscape:persp3d"
   inkscape:vp_x="0 : 507.91861 : 1"
   inkscape:vp_y="0 : 1000 : 0"
   inkscape:vp_z="1183.5554 : 507.91861 : 1"
   inkscape:persp3d-origin="591.77771 : 338.61241 : 1"
   id="perspective158" />
			
			
			
			
			
			
			
			
			
			
			
			
			
			
			
			
			
			
			
			
			
			
			
			
			
			
			
			
			
			
			
			
			
			
			
			
			
			
			
			
			
			
			
			
			
			
			
			
			
			
			
			
			
			
			
			
			
			
			
			
			
			
			
			
			
			
			
			
			
			
			
			
			
			
			
			
			
			
			
			
			
			
			
			
			
			
			
			
			
			
			
		
			
			
			
			
			
			
			
			
			
			
			
			
			
			
			
			
			
			
			
			
			
			
			
			
			
			
			
			
			
			
			
			
			
			
			
			
			
			
			
			
			
			
			
			
			
			
			
			
			
			
			
			
			
		<inkscape:perspective
   id="perspective5447"
   inkscape:persp3d-origin="0.5 : 0.33333333 : 1"
   inkscape:vp_z="1 : 0.5 : 1"
   inkscape:vp_y="0 : 1000 : 0"
   inkscape:vp_x="0 : 0.5 : 1"
   sodipodi:type="inkscape:persp3d" /><inkscape:perspective
   id="perspective3914"
   inkscape:persp3d-origin="0.5 : 0.33333333 : 1"
   inkscape:vp_z="1 : 0.5 : 1"
   inkscape:vp_y="0 : 1000 : 0"
   inkscape:vp_x="0 : 0.5 : 1"
   sodipodi:type="inkscape:persp3d" /><inkscape:perspective
   id="perspective5611"
   inkscape:persp3d-origin="0.5 : 0.33333333 : 1"
   inkscape:vp_z="1 : 0.5 : 1"
   inkscape:vp_y="0 : 1000 : 0"
   inkscape:vp_x="0 : 0.5 : 1"
   sodipodi:type="inkscape:persp3d" /><inkscape:perspective
   id="perspective5625"
   inkscape:persp3d-origin="0.5 : 0.33333333 : 1"
   inkscape:vp_z="1 : 0.5 : 1"
   inkscape:vp_y="0 : 1000 : 0"
   inkscape:vp_x="0 : 0.5 : 1"
   sodipodi:type="inkscape:persp3d" /><inkscape:perspective
   id="perspective2865"
   inkscape:persp3d-origin="0.5 : 0.33333333 : 1"
   inkscape:vp_z="1 : 0.5 : 1"
   inkscape:vp_y="0 : 1000 : 0"
   inkscape:vp_x="0 : 0.5 : 1"
   sodipodi:type="inkscape:persp3d" /></defs>
	
		
		
		
		
		<g
   transform="matrix(1.3008252,0,0,0.98506155,0,-0.0372758)"
   id="Meer">
			<g
   id="g5555"><g
     id="g5551"><g
       id="g5548"><rect
         width="1183.4114"
         height="1015.165"
         x="0"
         y="0.037840001"
         style="fill:#c6ecff;fill-rule:evenodd"
         id="rect8" /></g></g></g> 
		</g><polygon
   id="polygon81"
   style="fill:#fefee9;fill-rule:evenodd"
   points="1130.0784,474.58228 1128.9377,474.01245 1127.6633,473.55054 1126.0149,472.56226 1125.4827,471.78296 1124.9397,471.53296 1123.4768,470.1228 1122.9314,469.84985 1122.0974,469.55054 1120.0935,468.27417 1119.134,468.24487 1119.0134,468.15796 1118.7048,468.17505 1118.2288,468.13159 1117.1462,467.71313 1115.0305,467.48022 1114.4895,466.98901 1113.3157,466.98608 1112.9709,466.77124 1110.8157,467.95142 1109.97,468.80933 1109.7019,468.88745 1109.592,468.73608 1109.637,468.04468 1109.3777,467.95728 1108.3645,468.46899 1107.0364,468.38159 1105.4597,468.28296 1104.196,468.97192 1103.9412,468.83472 1103.9324,467.82642 1104.5046,465.26831 1104.7307,464.25659 1104.7395,463.34937 1104.7439,462.91333 1104.7307,462.89868 1104.6301,462.7854 1104.364,462.48315 1104.0842,461.57886 1103.3577,460.52661 1102.4856,458.91333 1102.7673,458.02319 1103.0354,457.51733 1103.4158,457.198 1103.3865,456.59888 1103.8249,456.39233 1104.697,454.59058 1105.6252,454.77319 1107.0564,454.11938 1108.7717,454.25854 1111.0681,453.89526 1111.4368,454.55835 1111.5935,454.67163 1112.2825,455.15991 1113.0359,454.99976 1112.6111,454.26733 1112.9197,453.92749 1113.2483,453.85181 1113.5149,453.32593 1113.9841,453.47681 1114.5501,453.93335 1115.3796,453.52612 1116.0686,453.73267 1116.5159,454.17456 1117.7522,454.59595 1118.4724,453.76733 1119.6956,453.76147 1120.259,453.61646 1120.8206,452.87183 1121.0955,452.72974 1121.4421,452.86938 1123.2087,454.448 1123.4905,454.09888 1123.6428,453.90698 1124.6038,453.63647 1125.1008,452.99438 1125.6306,453.02026 1125.5501,452.33179 1125.823,452.45386 1126.0217,451.11646 1125.324,450.52612 1125.3821,450.35181 1125.9817,450.35181 1126.4934,450.427 1126.8987,451.25903 1126.4202,452.11646 1126.5115,452.37231 1126.9299,452.47974 1126.9343,452.81714 1126.6189,452.77026 1126.4646,452.927 1126.552,453.11304 1126.4358,453.45923 1126.5588,453.75903 1126.8782,453.85474 1127.0886,454.36353 1127.5916,454.92163 1128.2087,453.98267 1128.9177,453.85181 1129.3831,453.11646 1129.5325,453.46558 1128.7166,455.74146 1128.8079,456.26196 1129.0696,456.52954 1129.4319,456.57007 1129.6179,456.19507 1130.2307,456.07007 1130.5413,454.62769 1130.0896,453.53784 1130.1545,452.8606 1131.3733,452.80835 1132.051,453.18921 1132.3035,453.33179 1132.8132,453.38403 1132.8088,453.62524 1132.3103,453.97681 1132.2747,454.41284 1131.6614,455.11353 1131.7244,456.16284 1132.0305,456.37817 1132.4802,456.0061 1132.99,456.08423 1133.0081,456.29663 1132.6252,456.8811 1132.8982,457.29077 1133.7927,457.67505 1134.2068,456.2937 1134.468,456.27368 1135.2395,458.05835 1134.8171,459.02954 1134.8459,459.22729 1135.3782,459.20972 1135.7205,458.67505 1136.0471,458.85522 1135.9954,460.52661 1139.636,461.96851 1139.1462,462.84058 1139.1418,462.85522 1138.9543,463.54712 1139.1643,463.82007 1139.5491,463.82007 1140.1145,464.40503 1140.1077,464.64575 1139.8845,464.87573 1140.1931,465.1897 1140.4231,465.05591 1140.7903,465.17554 1141.0671,465.75366 1140.6536,466.35815 1140.7004,467.0271 1141.1501,467.66675 1141.2483,467.80884 1141.3894,468.00952 1141.6262,468.6897 1141.49,469.12866 1141.8679,469.41675 1142.4539,470.64624 1143.136,470.81763 1143.1604,471.53296 1143.6501,472.41089 1144.2942,472.75366 1144.4036,472.96021 1144.0774,473.43677 1143.3752,473.6521 1143.0442,473.36401 1142.2771,471.90503 1141.7293,471.60571 1141.5501,471.56763 1140.1282,471.25952 1139.7795,471.04175 1139.5266,471.0769 1139.3767,471.09399 1139.4841,471.28003 1140.2151,471.46899 1141.5974,472.15796 1141.823,472.27124 1142.1785,472.91968 1142.9255,473.70776 1143.2229,475.62915 1142.6931,476.98364 1142.9768,477.63501 1142.9255,477.9519 1142.5676,477.9519 1142.114,478.59741 1141.803,479.04224 1141.803,479.04224 1141.5437,479.41089 1141.1189,479.46362 1140.7229,479.96948 1139.967,479.8269 1137.5295,479.37036 1136.2795,478.23364 1135.1838,478.28345 1134.7097,477.6438 1133.3186,477.21069 1131.9011,475.72778 1131.3801,475.78589 "
   transform="matrix(5.4634675,0,0,5.4634675,-4794.1666,-2375.1012)" /><polygon
   id="polygon83"
   style="fill:#fefee9;fill-rule:evenodd"
   points="983.49927,503.98218 984.83228,502.92114 985.0896,503.02905 984.86792,503.71216 984.14819,504.32495 983.55542,505.27905 983.13501,505.11597 982.83081,505.50854 982.83081,505.50854 982.50659,505.34839 "
   transform="matrix(5.4634675,0,0,5.4634675,-4794.1666,-2375.1012)" /><polygon
   id="polygon85"
   style="fill:#fefee9;fill-rule:evenodd"
   points="1060.3303,488.30981 1063.0383,486.42944 1064.2502,486.09204 1064.9793,485.43774 1065.1916,484.68188 1065.0554,483.73999 1065.2522,483.19946 1065.9407,482.8562 1066.5222,483.12964 1068.1433,484.37671 1068.51,485.04565 1068.9036,485.26001 1070.467,485.44604 1070.8831,485.71118 1071.4846,486.42017 1072.5422,486.72241 1073.3362,487.39136 1074.1946,487.42065 1075.0623,487.25464 1075.3332,487.5105 1075.3889,487.77759 1074.6624,489.19653 1074.6311,489.7229 1074.8274,489.94702 1074.9436,490.07739 1075.9504,490.01929 1076.2698,490.22876 1076.3928,490.57153 1076.1067,490.98706 1074.9597,491.42017 1074.6643,492.38843 1074.7112,492.82153 1075.1296,493.39722 1075.1316,493.78442 1074.8567,493.98169 1074.7561,494.50464 1075.051,496.77515 1074.9172,497.03101 1073.9934,496.51978 1073.7541,496.55444 1073.4793,497.16235 1073.6199,498.01099 1073.5374,498.66772 1073.488,499.05786 1073.2844,499.28442 1072.9983,499.26685 1071.8626,498.74341 1071.3166,498.68823 1070.9475,498.90649 1069.9348,501.15112 1069.4876,502.72925 1069.926,504.17114 1070.1492,504.42407 1070.7463,504.38599 1070.9475,504.61597 1070.6838,505.07788 1070.3171,505.22681 1069.2483,505.20923 1068.9016,505.42993 1068.5393,505.93579 1068.5569,506.05786 1068.6399,506.66284 1068.4387,507.24976 1067.9377,507.70044 1067.4055,507.86011 1065.7732,508.91577 1065.0442,509.99976 1063.8274,510.8894 1063.3713,511.79614 1062.5842,512.68628 1061.927,513.79956 1061.967,514.3313 1061.3005,516.00317 1061.0256,516.698 1060.5896,519.74487 1060.6877,520.948 1060.5471,521.34937 1060.3123,521.31177 1059.7507,520.70386 1059.5295,520.83472 1059.3396,521.28003 1059.5876,521.9397 1059.3572,522.6228 1058.7131,523.52124 1057.6155,526.14624 1057.2102,526.19263 1057.1365,526.25366 1056.9353,526.41626 1057.1145,527.0271 1056.8035,527.48901 1056.4612,527.66089 1055.7146,527.04419 1055.2942,526.92261 1055.1843,527.1814 1055.4866,528.15796 1055.0237,528.34692 1053.885,528.32935 1053.6794,528.62866 1053.8293,529.35864 1053.7356,529.73608 1053.3084,530.16675 1052.4094,530.54761 1051.8791,531.11743 1051.2488,530.93726 1050.6047,531.02124 1049.9114,530.66968 1049.554,531.15503 1049.6184,531.52417 1049.6428,531.66382 1049.4641,531.89331 1047.7688,532.54175 1047.1428,533.1521 1046.1814,534.65796 1043.782,537.35327 1043.2249,537.58813 1042.6126,537.50415 1042.116,537.07104 1041.7356,536.18433 1040.7585,534.97778 1040.5906,534.9021 1040.1121,534.67847 1039.8528,534.18433 1040.0364,533.45142 1039.5911,532.89917 1038.636,532.14917 1038.2424,532.39331 1037.6946,532.45728 1037.3035,532.22192 1037.1311,531.46606 1037.7844,530.32935 1037.7732,530.11157 1037.429,529.44556 1036.3372,528.13745 1035.6086,527.57056 1034.9802,527.32056 1034.4055,527.40796 1033.4817,527.30298 1032.8264,527.22485 1031.8806,527.58228 1031.4714,528.13452 1031.2097,528.16919 1029.2263,527.10278 1028.5642,527.01831 1027.4124,527.26831 1026.2566,527.13452 1025.6838,527.22485 1024.6331,527.79175 1024.1545,527.88452 1023.7585,527.72192 1023.1033,527.08472 1022.5373,527.00952 1021.5471,527.20435 1021.3235,527.11157 1021.1379,526.55005 1020.471,526.13159 1020.0354,525.41333 1018.4832,524.20435 1017.7722,523.23022 1017.3518,522.20093 1017.2961,521.40747 1017.7878,519.68335 1017.8059,518.89282 1017.6467,518.28491 1016.8508,517.1394 1016.4373,516.26196 1016.1218,515.59009 1016.3074,515.21558 1016.8215,514.93042 1017.2288,513.92163 1017.8279,513.37817 1018.1145,512.86646 1017.5666,511.51733 1017.0432,510.60181 1015.907,509.56128 1014.7131,509.20923 1013.4294,507.802 1012.8498,507.4856 1012.1257,506.75269 1011.137,506.48804 1011.0457,506.46509 1010.3411,506.27563 1009.9387,506.35181 1009.5496,506.427 1009.1516,506.28442 1008.6145,506.56958 1008.3015,507.13062 1008.3215,507.32544 1008.3333,507.41821 1008.8694,508.1189 1008.5432,508.46216 1007.0608,507.68872 1006.488,507.70923 1005.6721,509.29614 1005.115,509.81714 1004.2004,509.70386 1002.8498,510.14819 1001.8079,510.49146 1001.4299,510.90405 1001.3894,511.23804 1001.8391,511.78784 1001.4275,511.93628 1001.3469,512.12231 1001.3469,513.0813 1000.4099,515.21802 1000.032,516.61353 1000.1956,517.17163 1000.0833,517.52661 998.40649,516.82007 997.21411,515.94507 996.52759,516.34058 996.40698,516.40698 996.60864,515.698 996.3894,514.82593 996.66431,514.07007 996.53931,513.70679 995.9353,513.89282 995.2981,513.81128 994.87964,513.14282 994.69653,512.51196 994.85718,512.1106 995.25122,511.84302 996.20581,511.74731 996.42944,511.56665 996.3938,511.32593 995.3938,510.84302 994.51294,509.43286 993.67896,509.43872 993.05298,510.12817 992.56763,510.24683 991.92114,510.40698 991.84058,510.11646 991.98364,509.59595 991.83618,509.2063 991.38892,509.11011 991.0022,509.23511 990.64868,510.15405 990.00903,510.60181 989.34741,510.52319 989.4436,509.99976 989.2937,509.67993 988.86206,509.73218 988.43042,509.30249 987.88013,509.89819 987.45093,509.927 987.22729,509.60474 987.58276,509.16528 988.74585,508.69458 989.21509,508.31128 989.19946,508.14233 989.06323,508.04028 988.69653,508.21216 987.96313,508.15356 987.66577,507.84888 986.21655,506.36597 986.13599,506.07544 986.36841,505.177 986.29028,504.83716 985.80981,504.42993 985.72681,504.13647 986.22974,503.08374 986.54321,503.00269 986.91235,502.2522 988.16235,500.97046 989.32935,500.97925 990.91235,500.21753 991.70679,499.53735 991.95923,499.15942 992.39966,498.49341 993.1936,497.86011 994.94897,496.98755 995.91968,496.12427 996.61255,495.13013 997.39087,494.80737 998.18481,493.67358 998.63208,493.28687 999.65161,492.88257 1000.3137,492.05444 1000.7498,491.88257 1002.134,492.0686 1003.0422,491.83032 1003.7307,491.36255 1005.7703,489.69067 1006.3269,488.5686 1008.239,486.57983 1009.1467,485.11792 1009.6926,485.65015 1010.303,485.39136 1011.0256,484.78101 1011.2693,484.20776 1012.1077,482.24829 1012.7649,481.99585 1013.6374,482.66431 1013.9905,482.27466 1013.8899,481.47827 1013.9817,481.07446 1016.9719,478.64087 1017.658,478.2688 1018.4475,478.71948 1018.906,478.60034 1019.387,478.09741 1019.6331,477.38208 1019.6956,477.2019 1020.1448,477.2981 1020.3372,475.87036 1020.5852,475.69019 1021.2205,475.86743 1021.8284,475.68433 1022.721,475.97192 1022.6941,475.69312 1022.6785,475.52466 1022.6741,475.4895 1022.9065,475.1438 1022.967,475.15259 1024.304,475.35913 1024.3064,475.35913 1025.2346,475.04761 1026.0325,474.78052 1026.9988,473.65796 1028.137,473.35864 1028.7541,472.98315 1029.3669,472.19849 1029.7048,471.76538 1030.8162,471.0564 1031.4959,471.33228 1032.0974,470.79175 1032.6497,470.72437 1033.3186,470.32935 1034.4724,468.85864 1034.8503,468.95142 1035.3108,469.44263 1035.5681,469.71899 1035.8899,470.06177 1037.0666,469.95728 1039.1907,468.2771 1039.8459,467.94263 1041.3533,467.17212 1041.8586,467.1521 1041.7937,467.89331 1042.051,468.00073 1042.8362,467.63745 1043.3279,467.80884 1042.9568,468.48315 1042.9768,468.96313 1043.4822,468.91919 1045.8884,467.35278 1046.2039,467.27417 1046.4768,467.50366 1046.3425,467.78589 1046.3982,468.05347 1047.9436,467.80298 1048.5364,467.45142 1048.7688,467.12866 1049.3655,466.30054 1050.3386,465.58813 1052.0315,464.84351 1052.6531,464.83179 1052.7849,465.02954 1052.5525,465.35278 1052.6575,465.6228 1053.2097,465.58228 1055.095,464.80298 1055.3992,464.9397 1054.8425,465.48315 1054.5247,466.42212 1054.2273,466.6228 1053.7532,466.54712 1053.3147,466.68921 1052.1008,467.6228 1051.1907,468.32056 1050.676,468.55591 1049.1243,468.51538 1048.3147,469.28589 1047.8718,469.9314 1047.2927,470.06812 1047.2683,471.33521 1046.2307,470.22192 1045.5842,470.25952 1045.0745,470.82983 1044.9065,471.70728 1045.1438,473.01587 1045.5261,473.89917 1045.781,474.4895 1046.7405,475.26245 1048.0173,475.09399 1048.9856,474.40503 1049.2986,474.37329 1049.6902,474.63452 1050.0969,474.61157 1050.6248,474.16138 1051.8904,473.75415 1052.5588,473.31226 1053.3552,472.3269 1053.7776,472.03882 1054.3303,472.02124 1054.7932,472.28882 1053.4827,473.48364 1053.4402,473.61743 1053.1916,474.4021 1053.3127,474.81812 1053.6282,475.14624 1054.0374,475.09692 1054.0842,475.53345 1053.532,476.00415 1052.6462,477.2981 1052.1008,477.67261 1051.052,477.63794 1050.1418,478.11499 1049.6921,478.03882 1049.3567,477.6145 1048.8962,477.32397 1048.6321,477.35864 1048.2297,477.71899 1047.9255,478.44604 1047.6594,479.38794 1047.7336,479.75415 1047.7336,479.75415 1048.2566,481.53345 1049.3523,483.70532 1050.2288,484.68774 1052.0427,485.96704 1055.1126,487.36206 1055.198,487.53394 1056.7698,488.29858 1057.4968,488.65015 1058.2014,488.85913 1058.7288,488.79272 1059.4714,488.33325 "
   transform="matrix(5.4634675,0,0,5.4634675,-4794.1666,-2375.1012)" /><polygon
   id="polygon87"
   style="fill:#fefee9;fill-rule:evenodd"
   points="1034.9978,546.51343 1034.6223,546.0105 1034.6848,545.75171 1034.9758,545.5979 1035.0203,545.19312 1035.3626,544.99585 1035.8811,545.07153 1035.9392,545.29224 1035.6287,546.25757 1035.3489,546.60327 1035.3489,546.60327 "
   transform="matrix(5.4634675,0,0,5.4634675,-4794.1666,-2375.1012)" /><polygon
   id="polygon89"
   style="fill:#fefee9;fill-rule:evenodd"
   points="1032.0217,548.19702 1032.554,549.7605 1032.8557,549.85083 1032.9895,549.56909 1032.9563,549.46411 1032.8088,548.98462 1032.8957,548.65308 1033.2493,548.69409 1033.6291,549.12378 1034.0501,549.21997 1034.3562,548.80396 1034.0852,548.09497 1034.1751,547.76343 1034.5325,547.71118 1035.1746,548.10376 1035.9929,548.26929 1036.3108,548.52808 1035.6799,549.28394 1035.1121,549.25171 1034.9109,549.50464 1034.7966,549.85962 1035.1321,550.21411 1034.696,550.86255 1034.7073,551.10376 1035.1877,551.8479 1035.1077,552.01392 1034.7742,552.06616 1033.9582,551.82788 1033.115,552.09497 1033.115,552.09497 1033.0769,551.49292 1031.9143,551.54858 1031.8538,551.35376 1032.3147,550.70825 1032.2073,550.48755 1031.2747,550.24341 1031.1897,549.61548 1031.865,548.93237 1031.5227,548.67358 1031.467,548.38306 1031.6702,548.10669 "
   transform="matrix(5.4634675,0,0,5.4634675,-4794.1666,-2375.1012)" /><polygon
   id="polygon91"
   style="fill:#fefee9;fill-rule:evenodd"
   points="929.63306,560.91821 929.5769,561.13013 929.81421,561.66821 929.44946,561.94165 929.44946,561.94165 928.8728,561.60718 928.58862,561.01978 928.62671,560.6853 "
   transform="matrix(5.4634675,0,0,5.4634675,-4794.1666,-2375.1012)" /><polygon
   id="polygon93"
   style="fill:#fefee9;fill-rule:evenodd"
   points="894.45239,566.80835 894.21313,566.22388 894.75415,565.62183 894.90649,565.98511 894.8103,566.67749 895.1145,566.78491 895.24634,567.02905 894.99829,567.35425 894.99829,567.35425 894.41675,567.14233 "
   transform="matrix(5.4634675,0,0,5.4634675,-4794.1666,-2375.1012)" /><polygon
   id="polygon95"
   style="fill:#fefee9;fill-rule:evenodd"
   points="893.4104,569.57593 892.84009,569.72095 892.84009,569.72095 892.63208,569.56958 893.40356,569.09595 893.90894,569.47388 893.73706,569.65991 "
   transform="matrix(5.4634675,0,0,5.4634675,-4794.1666,-2375.1012)" /><polygon
   id="polygon97"
   style="fill:#fefee9;fill-rule:evenodd"
   points="893.27173,579.54419 892.87378,579.48315 892.90259,579.26782 893.73218,578.48315 893.89575,579.20972 893.27173,579.54419 "
   transform="matrix(5.4634675,0,0,5.4634675,-4794.1666,-2375.1012)" /><polygon
   id="polygon99"
   style="fill:#fefee9;fill-rule:evenodd"
   points="906.77856,580.55591 905.97778,579.27954 905.49927,578.82886 905.00952,578.68921 904.34302,578.85767 903.78882,579.21851 903.43774,579.80542 903.07544,580.03247 903.12915,579.24194 902.948,579.04419 902.52515,579.00366 901.91479,579.55542 901.59302,579.37573 901.94165,578.83765 901.90552,578.55005 901.51685,578.198 899.45923,577.76196 898.88452,578.02661 898.50903,578.6604 898.23608,579.68042 897.71265,579.85522 896.6731,578.59058 895.7605,578.41284 895.55054,577.04663 895.51245,576.79956 895.07837,576.42163 894.90845,575.88989 894.95093,575.31421 895.47681,573.12817 896.33081,572.32007 896.51392,571.79956 896.46069,571.34302 895.302,570.07544 895.06519,569.46802 895.31763,568.97388 895.68237,568.72388 896.01782,567.87231 896.48755,567.9856 896.6106,567.82251 896.94116,567.78735 897.19409,567.96509 897.13794,568.24976 897.77075,568.36938 897.93188,568.35767 899.0481,568.27319 900.19751,567.7644 901.33765,568.21509 901.6936,568.15698 901.99097,567.95923 902.27466,567.77026 902.45386,567.34595 902.01294,567.18579 901.5144,567.21509 901.35571,567.06372 901.28882,566.75562 901.23462,566.50854 901.14331,566.45923 900.95776,566.35474 900.8147,565.74976 900.96216,564.91528 901.53003,564.2439 901.24585,563.60718 901.16089,562.67163 900.94409,562.18286 901.34009,561.67114 901.97485,561.35132 902.2771,561.20288 902.86938,560.48218 903.71265,560.03442 903.89819,559.5144 904.2561,559.38354 904.93823,559.48169 905.32495,558.60718 906.31128,557.46997 906.59302,557.50513 906.92163,558.2146 907.93481,558.30151 908.32593,557.28394 909.18481,556.45581 909.39282,556.53442 909.56958,556.90063 910.47046,556.81616 911.06763,556.62427 911.17944,556.40942 911.60229,555.5896 912.98413,555.90649 913.9187,555.5603 913.77124,555.12427 914.16284,554.77856 915.52905,554.28101 916.18628,554.35376 916.42993,554.17358 916.66479,553.58374 916.85718,553.51978 917.37183,554.28101 917.83911,554.39771 918.25269,554.08081 918.25513,554.07788 918.55249,553.05737 919.10669,552.79272 920.19604,552.74048 920.92261,552.88843 920.96997,553.53979 921.69849,554.2146 922.09692,554.90356 922.4436,555.13306 923.7854,554.65894 925.40649,554.86841 926.07739,555.85669 925.80005,556.29858 926.31421,556.4646 926.29858,556.82495 926.12231,557.10425 925.14722,557.30444 924.85425,557.53101 924.84058,559.04321 925.85376,559.99097 926.07056,560.19409 926.28296,560.82788 926.98511,560.97632 927.2981,561.39771 927.25366,562.54614 926.89771,562.60425 926.48853,562.15356 925.52515,562.66821 924.22778,564.46216 924.302,566.14233 923.41626,565.86597 922.49048,566.04663 921.99829,565.90698 921.5022,566.55786 920.95386,566.70044 920.7146,566.7644 920.43774,567.25854 920.37036,568.98218 919.98804,569.68579 920.02808,570.50317 919.87622,570.73511 919.47144,570.84009 918.89673,570.50562 918.03589,572.00562 917.24438,572.35767 915.64282,574.1394 915.24048,574.22144 914.677,573.54956 914.29907,573.55835 914.08667,574.17456 914.16479,574.43335 914.31665,574.92798 914.23853,575.16284 913.93677,575.00903 913.48267,573.93628 913.18335,573.7561 912.61499,573.82886 912.59741,574.25903 912.89478,574.53491 912.95288,574.84937 912.67554,575.32007 911.87915,575.1687 911.26685,575.64819 911.00513,575.85181 910.27612,577.09351 909.93579,578.01782 910.02563,579.36401 909.92065,580.94263 909.92065,580.94263 910.2356,582.56128 910.11499,582.67505 909.76392,582.61401 909.45288,582.09937 909.03931,581.82056 908.47778,581.72778 908.1897,581.88159 907.73364,582.72778 907.47388,582.79126 907.11157,582.39331 907.1272,581.29126 "
   transform="matrix(5.4634675,0,0,5.4634675,-4794.1666,-2375.1012)" /><polygon
   id="polygon101"
   style="fill:#fefee9;fill-rule:evenodd"
   points="915.73267,587.28589 915.41724,586.26831 915.56714,585.45728 915.81274,585.17798 915.99634,585.28247 916.1438,585.71851 915.97632,586.45728 916.46118,587.26831 916.38306,587.50366 916.03003,587.51538 916.03003,587.51538 "
   transform="matrix(5.4634675,0,0,5.4634675,-4794.1666,-2375.1012)" /><polygon
   id="polygon103"
   style="fill:#fefee9;fill-rule:evenodd"
   points="911.20874,588.06763 910.98511,587.7478 911.21997,587.13159 910.83081,586.82935 911.27368,586.32056 911.43677,586.3728 912.09399,588.29468 911.9397,588.64966 911.9397,588.64966 911.68042,588.03882 "
   transform="matrix(5.4634675,0,0,5.4634675,-4794.1666,-2375.1012)" /><polygon
   id="polygon105"
   style="fill:#fefee9;fill-rule:evenodd"
   points="911.79907,599.86792 911.56421,599.88208 911.15942,600.68188 909.27661,602.36499 908.89868,602.70532 908.52075,602.73999 908.39331,602.39722 908.39331,602.35913 908.42456,600.88843 908.26587,598.64087 908.19409,597.61792 908.58081,597.32104 908.71313,596.91724 908.19165,594.52173 909.23169,593.12329 909.49097,593.08569 909.93384,593.17554 910.22681,593.54761 910.16187,594.02466 910.29419,594.24536 910.85522,594.36157 911.12134,594.13208 910.86401,593.47485 910.94458,593.19019 911.64917,592.59399 912.27075,590.48364 913.17212,592.75122 914.07544,593.7688 914.51587,593.90503 915.11548,593.78296 915.29858,593.74536 915.88892,595.54517 915.76392,596.32983 917.62866,598.01294 919.67505,599.1731 920.25415,599.36499 922.31616,597.74536 922.86401,597.5769 923.49438,598.27466 923.94849,598.57983 924.50317,600.11206 924.36646,600.58862 923.85669,600.99878 923.47681,601.75122 923.47681,601.75122 923.19507,601.8186 923.04956,601.85327 922.81665,601.83276 920.0061,601.58569 919.56519,601.4231 917.84595,599.69946 915.20239,598.28638 914.64331,597.98999 913.96606,597.89087 913.15649,598.16968 912.50562,598.60034 "
   transform="matrix(5.4634675,0,0,5.4634675,-4794.1666,-2375.1012)" /><polygon
   id="polygon261"
   style="fill:none;stroke:#0978ab;stroke-width:0.42519999;stroke-linejoin:round;stroke-miterlimit:3.8636899"
   points="1130.0784,474.58228 1128.9377,474.01245 1127.6633,473.55054 1126.0149,472.56226 1125.4827,471.78296 1124.9397,471.53296 1123.4768,470.1228 1122.9314,469.84985 1122.0974,469.55054 1120.0935,468.27417 1119.134,468.24487 1119.0134,468.15796 1118.7048,468.17505 1118.2288,468.13159 1117.1462,467.71313 1115.0305,467.48022 1114.4895,466.98901 1113.3157,466.98608 1112.9709,466.77124 1110.8157,467.95142 1109.97,468.80933 1109.7019,468.88745 1109.592,468.73608 1109.637,468.04468 1109.3777,467.95728 1108.3645,468.46899 1107.0364,468.38159 1105.4597,468.28296 1104.196,468.97192 1103.9412,468.83472 1103.9324,467.82642 1104.5046,465.26831 1104.7307,464.25659 1104.7395,463.34937 1104.7439,462.91333 1104.7307,462.89868 1104.6301,462.7854 1104.364,462.48315 1104.0842,461.57886 1103.3577,460.52661 1102.4856,458.91333 1102.7673,458.02319 1103.0354,457.51733 1103.4158,457.198 1103.3865,456.59888 1103.8249,456.39233 1104.697,454.59058 1105.6252,454.77319 1107.0564,454.11938 1108.7717,454.25854 1111.0681,453.89526 1111.4368,454.55835 1111.5935,454.67163 1112.2825,455.15991 1113.0359,454.99976 1112.6111,454.26733 1112.9197,453.92749 1113.2483,453.85181 1113.5149,453.32593 1113.9841,453.47681 1114.5501,453.93335 1115.3796,453.52612 1116.0686,453.73267 1116.5159,454.17456 1117.7522,454.59595 1118.4724,453.76733 1119.6956,453.76147 1120.259,453.61646 1120.8206,452.87183 1121.0955,452.72974 1121.4421,452.86938 1123.2087,454.448 1123.4905,454.09888 1123.6428,453.90698 1124.6038,453.63647 1125.1008,452.99438 1125.6306,453.02026 1125.5501,452.33179 1125.823,452.45386 1126.0217,451.11646 1125.324,450.52612 1125.3821,450.35181 1125.9817,450.35181 1126.4934,450.427 1126.8987,451.25903 1126.4202,452.11646 1126.5115,452.37231 1126.9299,452.47974 1126.9343,452.81714 1126.6189,452.77026 1126.4646,452.927 1126.552,453.11304 1126.4358,453.45923 1126.5588,453.75903 1126.8782,453.85474 1127.0886,454.36353 1127.5916,454.92163 1128.2087,453.98267 1128.9177,453.85181 1129.3831,453.11646 1129.5325,453.46558 1128.7166,455.74146 1128.8079,456.26196 1129.0696,456.52954 1129.4319,456.57007 1129.6179,456.19507 1130.2307,456.07007 1130.5413,454.62769 1130.0896,453.53784 1130.1545,452.8606 1131.3733,452.80835 1132.051,453.18921 1132.3035,453.33179 1132.8132,453.38403 1132.8088,453.62524 1132.3103,453.97681 1132.2747,454.41284 1131.6614,455.11353 1131.7244,456.16284 1132.0305,456.37817 1132.4802,456.0061 1132.99,456.08423 1133.0081,456.29663 1132.6252,456.8811 1132.8982,457.29077 1133.7927,457.67505 1134.2068,456.2937 1134.468,456.27368 1135.2395,458.05835 1134.8171,459.02954 1134.8459,459.22729 1135.3782,459.20972 1135.7205,458.67505 1136.0471,458.85522 1135.9954,460.52661 1139.636,461.96851 1139.1462,462.84058 1139.1418,462.85522 1138.9543,463.54712 1139.1643,463.82007 1139.5491,463.82007 1140.1145,464.40503 1140.1077,464.64575 1139.8845,464.87573 1140.1931,465.1897 1140.4231,465.05591 1140.7903,465.17554 1141.0671,465.75366 1140.6536,466.35815 1140.7004,467.0271 1141.1501,467.66675 1141.2483,467.80884 1141.3894,468.00952 1141.6262,468.6897 1141.49,469.12866 1141.8679,469.41675 1142.4539,470.64624 1143.136,470.81763 1143.1604,471.53296 1143.6501,472.41089 1144.2942,472.75366 1144.4036,472.96021 1144.0774,473.43677 1143.3752,473.6521 1143.0442,473.36401 1142.2771,471.90503 1141.7293,471.60571 1141.5501,471.56763 1140.1282,471.25952 1139.7795,471.04175 1139.5266,471.0769 1139.3767,471.09399 1139.4841,471.28003 1140.2151,471.46899 1141.5974,472.15796 1141.823,472.27124 1142.1785,472.91968 1142.9255,473.70776 1143.2229,475.62915 1142.6931,476.98364 1142.9768,477.63501 1142.9255,477.9519 1142.5676,477.9519 1142.114,478.59741 1141.803,479.04224 1141.803,479.04224 1141.5437,479.41089 1141.1189,479.46362 1140.7229,479.96948 1139.967,479.8269 1137.5295,479.37036 1136.2795,478.23364 1135.1838,478.28345 1134.7097,477.6438 1133.3186,477.21069 1131.9011,475.72778 1131.3801,475.78589 "
   transform="matrix(5.4634675,0,0,5.4634675,-4794.1666,-2375.1012)" /><polygon
   id="polygon263"
   style="fill:none;stroke:#0978ab;stroke-width:0.42519999;stroke-linejoin:round;stroke-miterlimit:3.8636899"
   points="983.49927,503.98218 984.83228,502.92114 985.0896,503.02905 984.86792,503.71216 984.14819,504.32495 983.55542,505.27905 983.13501,505.11597 982.83081,505.50854 982.83081,505.50854 982.50659,505.34839 "
   transform="matrix(5.4634675,0,0,5.4634675,-4794.1666,-2375.1012)" /><polygon
   id="polygon265"
   style="fill:none;stroke:#0978ab;stroke-width:0.42519999;stroke-linejoin:round;stroke-miterlimit:3.8636899"
   points="1060.3303,488.30981 1063.0383,486.42944 1064.2502,486.09204 1064.9793,485.43774 1065.1916,484.68188 1065.0554,483.73999 1065.2522,483.19946 1065.9407,482.8562 1066.5222,483.12964 1068.1433,484.37671 1068.51,485.04565 1068.9036,485.26001 1070.467,485.44604 1070.8831,485.71118 1071.4846,486.42017 1072.5422,486.72241 1073.3362,487.39136 1074.1946,487.42065 1075.0623,487.25464 1075.3332,487.5105 1075.3889,487.77759 1074.6624,489.19653 1074.6311,489.7229 1074.8274,489.94702 1074.9436,490.07739 1075.9504,490.01929 1076.2698,490.22876 1076.3928,490.57153 1076.1067,490.98706 1074.9597,491.42017 1074.6643,492.38843 1074.7112,492.82153 1075.1296,493.39722 1075.1316,493.78442 1074.8567,493.98169 1074.7561,494.50464 1075.051,496.77515 1074.9172,497.03101 1073.9934,496.51978 1073.7541,496.55444 1073.4793,497.16235 1073.6199,498.01099 1073.5374,498.66772 1073.488,499.05786 1073.2844,499.28442 1072.9983,499.26685 1071.8626,498.74341 1071.3166,498.68823 1070.9475,498.90649 1069.9348,501.15112 1069.4876,502.72925 1069.926,504.17114 1070.1492,504.42407 1070.7463,504.38599 1070.9475,504.61597 1070.6838,505.07788 1070.3171,505.22681 1069.2483,505.20923 1068.9016,505.42993 1068.5393,505.93579 1068.5569,506.05786 1068.6399,506.66284 1068.4387,507.24976 1067.9377,507.70044 1067.4055,507.86011 1065.7732,508.91577 1065.0442,509.99976 1063.8274,510.8894 1063.3713,511.79614 1062.5842,512.68628 1061.927,513.79956 1061.967,514.3313 1061.3005,516.00317 1061.0256,516.698 1060.5896,519.74487 1060.6877,520.948 1060.5471,521.34937 1060.3123,521.31177 1059.7507,520.70386 1059.5295,520.83472 1059.3396,521.28003 1059.5876,521.9397 1059.3572,522.6228 1058.7131,523.52124 1057.6155,526.14624 1057.2102,526.19263 1057.1365,526.25366 1056.9353,526.41626 1057.1145,527.0271 1056.8035,527.48901 1056.4612,527.66089 1055.7146,527.04419 1055.2942,526.92261 1055.1843,527.1814 1055.4866,528.15796 1055.0237,528.34692 1053.885,528.32935 1053.6794,528.62866 1053.8293,529.35864 1053.7356,529.73608 1053.3084,530.16675 1052.4094,530.54761 1051.8791,531.11743 1051.2488,530.93726 1050.6047,531.02124 1049.9114,530.66968 1049.554,531.15503 1049.6184,531.52417 1049.6428,531.66382 1049.4641,531.89331 1047.7688,532.54175 1047.1428,533.1521 1046.1814,534.65796 1043.782,537.35327 1043.2249,537.58813 1042.6126,537.50415 1042.116,537.07104 1041.7356,536.18433 1040.7585,534.97778 1040.5906,534.9021 1040.1121,534.67847 1039.8528,534.18433 1040.0364,533.45142 1039.5911,532.89917 1038.636,532.14917 1038.2424,532.39331 1037.6946,532.45728 1037.3035,532.22192 1037.1311,531.46606 1037.7844,530.32935 1037.7732,530.11157 1037.429,529.44556 1036.3372,528.13745 1035.6086,527.57056 1034.9802,527.32056 1034.4055,527.40796 1033.4817,527.30298 1032.8264,527.22485 1031.8806,527.58228 1031.4714,528.13452 1031.2097,528.16919 1029.2263,527.10278 1028.5642,527.01831 1027.4124,527.26831 1026.2566,527.13452 1025.6838,527.22485 1024.6331,527.79175 1024.1545,527.88452 1023.7585,527.72192 1023.1033,527.08472 1022.5373,527.00952 1021.5471,527.20435 1021.3235,527.11157 1021.1379,526.55005 1020.471,526.13159 1020.0354,525.41333 1018.4832,524.20435 1017.7722,523.23022 1017.3518,522.20093 1017.2961,521.40747 1017.7878,519.68335 1017.8059,518.89282 1017.6467,518.28491 1016.8508,517.1394 1016.4373,516.26196 1016.1218,515.59009 1016.3074,515.21558 1016.8215,514.93042 1017.2288,513.92163 1017.8279,513.37817 1018.1145,512.86646 1017.5666,511.51733 1017.0432,510.60181 1015.907,509.56128 1014.7131,509.20923 1013.4294,507.802 1012.8498,507.4856 1012.1257,506.75269 1011.137,506.48804 1011.0457,506.46509 1010.3411,506.27563 1009.9387,506.35181 1009.5496,506.427 1009.1516,506.28442 1008.6145,506.56958 1008.3015,507.13062 1008.3215,507.32544 1008.3333,507.41821 1008.8694,508.1189 1008.5432,508.46216 1007.0608,507.68872 1006.488,507.70923 1005.6721,509.29614 1005.115,509.81714 1004.2004,509.70386 1002.8498,510.14819 1001.8079,510.49146 1001.4299,510.90405 1001.3894,511.23804 1001.8391,511.78784 1001.4275,511.93628 1001.3469,512.12231 1001.3469,513.0813 1000.4099,515.21802 1000.032,516.61353 1000.1956,517.17163 1000.0833,517.52661 998.40649,516.82007 997.21411,515.94507 996.52759,516.34058 996.40698,516.40698 996.60864,515.698 996.3894,514.82593 996.66431,514.07007 996.53931,513.70679 995.9353,513.89282 995.2981,513.81128 994.87964,513.14282 994.69653,512.51196 994.85718,512.1106 995.25122,511.84302 996.20581,511.74731 996.42944,511.56665 996.3938,511.32593 995.3938,510.84302 994.51294,509.43286 993.67896,509.43872 993.05298,510.12817 992.56763,510.24683 991.92114,510.40698 991.84058,510.11646 991.98364,509.59595 991.83618,509.2063 991.38892,509.11011 991.0022,509.23511 990.64868,510.15405 990.00903,510.60181 989.34741,510.52319 989.4436,509.99976 989.2937,509.67993 988.86206,509.73218 988.43042,509.30249 987.88013,509.89819 987.45093,509.927 987.22729,509.60474 987.58276,509.16528 988.74585,508.69458 989.21509,508.31128 989.19946,508.14233 989.06323,508.04028 988.69653,508.21216 987.96313,508.15356 987.66577,507.84888 986.21655,506.36597 986.13599,506.07544 986.36841,505.177 986.29028,504.83716 985.80981,504.42993 985.72681,504.13647 986.22974,503.08374 986.54321,503.00269 986.91235,502.2522 988.16235,500.97046 989.32935,500.97925 990.91235,500.21753 991.70679,499.53735 991.95923,499.15942 992.39966,498.49341 993.1936,497.86011 994.94897,496.98755 995.91968,496.12427 996.61255,495.13013 997.39087,494.80737 998.18481,493.67358 998.63208,493.28687 999.65161,492.88257 1000.3137,492.05444 1000.7498,491.88257 1002.134,492.0686 1003.0422,491.83032 1003.7307,491.36255 1005.7703,489.69067 1006.3269,488.5686 1008.239,486.57983 1009.1467,485.11792 1009.6926,485.65015 1010.303,485.39136 1011.0256,484.78101 1011.2693,484.20776 1012.1077,482.24829 1012.7649,481.99585 1013.6374,482.66431 1013.9905,482.27466 1013.8899,481.47827 1013.9817,481.07446 1016.9719,478.64087 1017.658,478.2688 1018.4475,478.71948 1018.906,478.60034 1019.387,478.09741 1019.6331,477.38208 1019.6956,477.2019 1020.1448,477.2981 1020.3372,475.87036 1020.5852,475.69019 1021.2205,475.86743 1021.8284,475.68433 1022.721,475.97192 1022.6941,475.69312 1022.6785,475.52466 1022.6741,475.4895 1022.9065,475.1438 1022.967,475.15259 1024.304,475.35913 1024.3064,475.35913 1025.2346,475.04761 1026.0325,474.78052 1026.9988,473.65796 1028.137,473.35864 1028.7541,472.98315 1029.3669,472.19849 1029.7048,471.76538 1030.8162,471.0564 1031.4959,471.33228 1032.0974,470.79175 1032.6497,470.72437 1033.3186,470.32935 1034.4724,468.85864 1034.8503,468.95142 1035.3108,469.44263 1035.5681,469.71899 1035.8899,470.06177 1037.0666,469.95728 1039.1907,468.2771 1039.8459,467.94263 1041.3533,467.17212 1041.8586,467.1521 1041.7937,467.89331 1042.051,468.00073 1042.8362,467.63745 1043.3279,467.80884 1042.9568,468.48315 1042.9768,468.96313 1043.4822,468.91919 1045.8884,467.35278 1046.2039,467.27417 1046.4768,467.50366 1046.3425,467.78589 1046.3982,468.05347 1047.9436,467.80298 1048.5364,467.45142 1048.7688,467.12866 1049.3655,466.30054 1050.3386,465.58813 1052.0315,464.84351 1052.6531,464.83179 1052.7849,465.02954 1052.5525,465.35278 1052.6575,465.6228 1053.2097,465.58228 1055.095,464.80298 1055.3992,464.9397 1054.8425,465.48315 1054.5247,466.42212 1054.2273,466.6228 1053.7532,466.54712 1053.3147,466.68921 1052.1008,467.6228 1051.1907,468.32056 1050.676,468.55591 1049.1243,468.51538 1048.3147,469.28589 1047.8718,469.9314 1047.2927,470.06812 1047.2683,471.33521 1046.2307,470.22192 1045.5842,470.25952 1045.0745,470.82983 1044.9065,471.70728 1045.1438,473.01587 1045.5261,473.89917 1045.781,474.4895 1046.7405,475.26245 1048.0173,475.09399 1048.9856,474.40503 1049.2986,474.37329 1049.6902,474.63452 1050.0969,474.61157 1050.6248,474.16138 1051.8904,473.75415 1052.5588,473.31226 1053.3552,472.3269 1053.7776,472.03882 1054.3303,472.02124 1054.7932,472.28882 1053.4827,473.48364 1053.4402,473.61743 1053.1916,474.4021 1053.3127,474.81812 1053.6282,475.14624 1054.0374,475.09692 1054.0842,475.53345 1053.532,476.00415 1052.6462,477.2981 1052.1008,477.67261 1051.052,477.63794 1050.1418,478.11499 1049.6921,478.03882 1049.3567,477.6145 1048.8962,477.32397 1048.6321,477.35864 1048.2297,477.71899 1047.9255,478.44604 1047.6594,479.38794 1047.7336,479.75415 1047.7336,479.75415 1048.2566,481.53345 1049.3523,483.70532 1050.2288,484.68774 1052.0427,485.96704 1055.1126,487.36206 1055.198,487.53394 1056.7698,488.29858 1057.4968,488.65015 1058.2014,488.85913 1058.7288,488.79272 1059.4714,488.33325 "
   transform="matrix(5.4634675,0,0,5.4634675,-4794.1666,-2375.1012)" /><polygon
   id="polygon267"
   style="fill:none;stroke:#0978ab;stroke-width:0.42519999;stroke-linejoin:round;stroke-miterlimit:3.8636899"
   points="1034.9978,546.51343 1034.6223,546.0105 1034.6848,545.75171 1034.9758,545.5979 1035.0203,545.19312 1035.3626,544.99585 1035.8811,545.07153 1035.9392,545.29224 1035.6287,546.25757 1035.3489,546.60327 1035.3489,546.60327 "
   transform="matrix(5.4634675,0,0,5.4634675,-4794.1666,-2375.1012)" /><polygon
   id="polygon269"
   style="fill:none;stroke:#0978ab;stroke-width:0.42519999;stroke-linejoin:round;stroke-miterlimit:3.8636899"
   points="1032.0217,548.19702 1032.554,549.7605 1032.8557,549.85083 1032.9895,549.56909 1032.9563,549.46411 1032.8088,548.98462 1032.8957,548.65308 1033.2493,548.69409 1033.6291,549.12378 1034.0501,549.21997 1034.3562,548.80396 1034.0852,548.09497 1034.1751,547.76343 1034.5325,547.71118 1035.1746,548.10376 1035.9929,548.26929 1036.3108,548.52808 1035.6799,549.28394 1035.1121,549.25171 1034.9109,549.50464 1034.7966,549.85962 1035.1321,550.21411 1034.696,550.86255 1034.7073,551.10376 1035.1877,551.8479 1035.1077,552.01392 1034.7742,552.06616 1033.9582,551.82788 1033.115,552.09497 1033.115,552.09497 1033.0769,551.49292 1031.9143,551.54858 1031.8538,551.35376 1032.3147,550.70825 1032.2073,550.48755 1031.2747,550.24341 1031.1897,549.61548 1031.865,548.93237 1031.5227,548.67358 1031.467,548.38306 1031.6702,548.10669 "
   transform="matrix(5.4634675,0,0,5.4634675,-4794.1666,-2375.1012)" /><polygon
   id="polygon271"
   style="fill:none;stroke:#0978ab;stroke-width:0.42519999;stroke-linejoin:round;stroke-miterlimit:3.8636899"
   points="929.63306,560.91821 929.5769,561.13013 929.81421,561.66821 929.44946,561.94165 929.44946,561.94165 928.8728,561.60718 928.58862,561.01978 928.62671,560.6853 "
   transform="matrix(5.4634675,0,0,5.4634675,-4794.1666,-2375.1012)" /><polygon
   id="polygon273"
   style="fill:none;stroke:#0978ab;stroke-width:0.42519999;stroke-linejoin:round;stroke-miterlimit:3.8636899"
   points="894.45239,566.80835 894.21313,566.22388 894.75415,565.62183 894.90649,565.98511 894.8103,566.67749 895.1145,566.78491 895.24634,567.02905 894.99829,567.35425 894.99829,567.35425 894.41675,567.14233 "
   transform="matrix(5.4634675,0,0,5.4634675,-4794.1666,-2375.1012)" /><polygon
   id="polygon275"
   style="fill:none;stroke:#0978ab;stroke-width:0.42519999;stroke-linejoin:round;stroke-miterlimit:3.8636899"
   points="893.4104,569.57593 892.84009,569.72095 892.84009,569.72095 892.63208,569.56958 893.40356,569.09595 893.90894,569.47388 893.73706,569.65991 "
   transform="matrix(5.4634675,0,0,5.4634675,-4794.1666,-2375.1012)" /><polygon
   id="polygon277"
   style="fill:none;stroke:#0978ab;stroke-width:0.42519999;stroke-linejoin:round;stroke-miterlimit:3.8636899"
   points="893.27173,579.54419 892.87378,579.48315 892.90259,579.26782 893.73218,578.48315 893.89575,579.20972 893.27173,579.54419 "
   transform="matrix(5.4634675,0,0,5.4634675,-4794.1666,-2375.1012)" /><polygon
   id="polygon279"
   style="fill:none;stroke:#0978ab;stroke-width:0.42519999;stroke-linejoin:round;stroke-miterlimit:3.8636899"
   points="906.77856,580.55591 905.97778,579.27954 905.49927,578.82886 905.00952,578.68921 904.34302,578.85767 903.78882,579.21851 903.43774,579.80542 903.07544,580.03247 903.12915,579.24194 902.948,579.04419 902.52515,579.00366 901.91479,579.55542 901.59302,579.37573 901.94165,578.83765 901.90552,578.55005 901.51685,578.198 899.45923,577.76196 898.88452,578.02661 898.50903,578.6604 898.23608,579.68042 897.71265,579.85522 896.6731,578.59058 895.7605,578.41284 895.55054,577.04663 895.51245,576.79956 895.07837,576.42163 894.90845,575.88989 894.95093,575.31421 895.47681,573.12817 896.33081,572.32007 896.51392,571.79956 896.46069,571.34302 895.302,570.07544 895.06519,569.46802 895.31763,568.97388 895.68237,568.72388 896.01782,567.87231 896.48755,567.9856 896.6106,567.82251 896.94116,567.78735 897.19409,567.96509 897.13794,568.24976 897.77075,568.36938 897.93188,568.35767 899.0481,568.27319 900.19751,567.7644 901.33765,568.21509 901.6936,568.15698 901.99097,567.95923 902.27466,567.77026 902.45386,567.34595 902.01294,567.18579 901.5144,567.21509 901.35571,567.06372 901.28882,566.75562 901.23462,566.50854 901.14331,566.45923 900.95776,566.35474 900.8147,565.74976 900.96216,564.91528 901.53003,564.2439 901.24585,563.60718 901.16089,562.67163 900.94409,562.18286 901.34009,561.67114 901.97485,561.35132 902.2771,561.20288 902.86938,560.48218 903.71265,560.03442 903.89819,559.5144 904.2561,559.38354 904.93823,559.48169 905.32495,558.60718 906.31128,557.46997 906.59302,557.50513 906.92163,558.2146 907.93481,558.30151 908.32593,557.28394 909.18481,556.45581 909.39282,556.53442 909.56958,556.90063 910.47046,556.81616 911.06763,556.62427 911.17944,556.40942 911.60229,555.5896 912.98413,555.90649 913.9187,555.5603 913.77124,555.12427 914.16284,554.77856 915.52905,554.28101 916.18628,554.35376 916.42993,554.17358 916.66479,553.58374 916.85718,553.51978 917.37183,554.28101 917.83911,554.39771 918.25269,554.08081 918.25513,554.07788 918.55249,553.05737 919.10669,552.79272 920.19604,552.74048 920.92261,552.88843 920.96997,553.53979 921.69849,554.2146 922.09692,554.90356 922.4436,555.13306 923.7854,554.65894 925.40649,554.86841 926.07739,555.85669 925.80005,556.29858 926.31421,556.4646 926.29858,556.82495 926.12231,557.10425 925.14722,557.30444 924.85425,557.53101 924.84058,559.04321 925.85376,559.99097 926.07056,560.19409 926.28296,560.82788 926.98511,560.97632 927.2981,561.39771 927.25366,562.54614 926.89771,562.60425 926.48853,562.15356 925.52515,562.66821 924.22778,564.46216 924.302,566.14233 923.41626,565.86597 922.49048,566.04663 921.99829,565.90698 921.5022,566.55786 920.95386,566.70044 920.7146,566.7644 920.43774,567.25854 920.37036,568.98218 919.98804,569.68579 920.02808,570.50317 919.87622,570.73511 919.47144,570.84009 918.89673,570.50562 918.03589,572.00562 917.24438,572.35767 915.64282,574.1394 915.24048,574.22144 914.677,573.54956 914.29907,573.55835 914.08667,574.17456 914.16479,574.43335 914.31665,574.92798 914.23853,575.16284 913.93677,575.00903 913.48267,573.93628 913.18335,573.7561 912.61499,573.82886 912.59741,574.25903 912.89478,574.53491 912.95288,574.84937 912.67554,575.32007 911.87915,575.1687 911.26685,575.64819 911.00513,575.85181 910.27612,577.09351 909.93579,578.01782 910.02563,579.36401 909.92065,580.94263 909.92065,580.94263 910.2356,582.56128 910.11499,582.67505 909.76392,582.61401 909.45288,582.09937 909.03931,581.82056 908.47778,581.72778 908.1897,581.88159 907.73364,582.72778 907.47388,582.79126 907.11157,582.39331 907.1272,581.29126 "
   transform="matrix(5.4634675,0,0,5.4634675,-4794.1666,-2375.1012)" /><polygon
   id="polygon281"
   style="fill:none;stroke:#0978ab;stroke-width:0.42519999;stroke-linejoin:round;stroke-miterlimit:3.8636899"
   points="915.73267,587.28589 915.41724,586.26831 915.56714,585.45728 915.81274,585.17798 915.99634,585.28247 916.1438,585.71851 915.97632,586.45728 916.46118,587.26831 916.38306,587.50366 916.03003,587.51538 916.03003,587.51538 "
   transform="matrix(5.4634675,0,0,5.4634675,-4794.1666,-2375.1012)" /><polygon
   id="polygon283"
   style="fill:none;stroke:#0978ab;stroke-width:0.42519999;stroke-linejoin:round;stroke-miterlimit:3.8636899"
   points="911.20874,588.06763 910.98511,587.7478 911.21997,587.13159 910.83081,586.82935 911.27368,586.32056 911.43677,586.3728 912.09399,588.29468 911.9397,588.64966 911.9397,588.64966 911.68042,588.03882 "
   transform="matrix(5.4634675,0,0,5.4634675,-4794.1666,-2375.1012)" /><polygon
   id="polygon285"
   style="fill:none;stroke:#0978ab;stroke-width:0.42519999;stroke-linejoin:round;stroke-miterlimit:3.8636899"
   points="911.79907,599.86792 911.56421,599.88208 911.15942,600.68188 909.27661,602.36499 908.89868,602.70532 908.52075,602.73999 908.39331,602.39722 908.39331,602.35913 908.42456,600.88843 908.26587,598.64087 908.19409,597.61792 908.58081,597.32104 908.71313,596.91724 908.19165,594.52173 909.23169,593.12329 909.49097,593.08569 909.93384,593.17554 910.22681,593.54761 910.16187,594.02466 910.29419,594.24536 910.85522,594.36157 911.12134,594.13208 910.86401,593.47485 910.94458,593.19019 911.64917,592.59399 912.27075,590.48364 913.17212,592.75122 914.07544,593.7688 914.51587,593.90503 915.11548,593.78296 915.29858,593.74536 915.88892,595.54517 915.76392,596.32983 917.62866,598.01294 919.67505,599.1731 920.25415,599.36499 922.31616,597.74536 922.86401,597.5769 923.49438,598.27466 923.94849,598.57983 924.50317,600.11206 924.36646,600.58862 923.85669,600.99878 923.47681,601.75122 923.47681,601.75122 923.19507,601.8186 923.04956,601.85327 922.81665,601.83276 920.0061,601.58569 919.56519,601.4231 917.84595,599.69946 915.20239,598.28638 914.64331,597.98999 913.96606,597.89087 913.15649,598.16968 912.50562,598.60034 "
   transform="matrix(5.4634675,0,0,5.4634675,-4794.1666,-2375.1012)" />
	<g
   id="Regions"><path
     id="path5385"
     d="m 704.72659,398.68417 -0.64021,0.56543 -0.24638,-0.31249 -0.29881,-0.015 -0.54521,-0.32751 -0.82915,-0.6155 -0.29881,-0.015 -0.85908,-0.0447 -0.56012,-0.0421 -0.28378,-0.3128 -0.82926,-0.60309 -0.81639,-0.65262 -0.8293,-0.60309 -1.64338,-1.51637 0.63261,-1.1241 0.59001,-0.52863 0.66999,-1.12379 2.39545,-1.87835 1.2027,-0.79638 1.47655,-0.76917 -0.23168,-0.57304 -0.81412,-0.91328 -0.57011,-0.32773 -0.8439,-0.35495 -0.2841,-0.27557 -0.87147,-0.0448 -1.07786,-0.66732 -0.29881,-0.015 -0.53049,-0.58806 -0.82883,-0.65274 -0.84433,-0.30529 -0.84401,-0.34253 -0.58244,-0.34024 -1.15789,-0.0598 -0.53034,-0.60047 0.61742,-0.81391 0.015,-0.3102 0.03,-0.55835 0.31374,-0.27035 0.31351,-0.24553 0.31389,-0.28277 -0.2566,-0.57326 -0.28362,-0.32523 -0.29881,-0.015 -0.5452,-0.32751 -0.29881,-0.015 -0.85898,-0.0572 -0.24671,-0.27524 -0.2988,-0.015 -0.57495,0.23083 -0.31129,-0.0151 -0.28406,-0.27558 -0.53265,-0.33981 0.0149,-0.29779 -0.25395,-0.87116 -0.21661,-0.87084 0.0273,-0.29768 0.0146,-0.26055 0.27655,-0.2831 0.31384,-0.28277 1.49136,-1.04214 0.62758,-0.55312 1.22267,-1.65274 0.2988,0.015 0.85909,0.0447 0.85893,0.0572 0.0149,-0.29779 0.0147,-0.26055 0.91637,-0.8113 0.29881,0.015 0.32888,-0.58056 0.6025,-0.52853 0.31377,-0.27036 0.29121,-0.54365 0.31388,-0.28277 0.57499,-0.23083 0.29881,0.015 0.29881,0.015 0.28897,-0.28299 0.0296,-0.55835 0.32896,-0.58056 0.34104,-0.54321 0.25136,-0.2585 0.0499,-0.012 0.63249,-1.1117 -0.22909,-0.87094 -0.25633,-0.59808 0.0149,-0.28538 0.045,-0.85614 0.0425,-0.57065 0.0297,-0.57076 -0.27126,-0.3127 -0.28637,-0.0149 -0.3013,0.27046 -0.28638,-0.0149 -0.25644,-0.58567 -0.28637,-0.0149 0.0148,-0.28538 -0.55768,-0.32762 -0.27137,-0.30029 -0.28637,-0.0149 -0.60011,0.25545 -0.25893,-0.30019 -0.2987,-0.0274 -0.57275,-0.0298 -0.28633,-0.0149 -0.30131,0.27046 -0.28634,-0.0149 -0.30129,0.27047 -0.27145,-0.30029 -0.28623,-0.0273 0.0149,-0.28538 -0.28637,-0.0149 -0.28638,-0.0149 -0.28633,-0.0149 0.0148,-0.28538 -0.28637,-0.0149 0.0149,-0.28538 -0.28634,-0.0149 -0.2713,-0.31271 0.28627,0.0273 -0.27134,-0.31271 -0.25644,-0.58567 -0.55775,-0.3152 -0.28637,-0.0149 -0.2713,-0.3127 -0.25648,-0.58567 0.0148,-0.28538 0.0149,-0.28538 0.0272,-0.28528 -0.27137,-0.30029 0.0149,-0.28538 -0.2713,-0.3127 0.31626,-0.55585 -0.27144,-0.30029 0.844,0.34253 0.88649,-0.24053 0.0149,-0.28538 0.61756,-0.82632 -1.11541,-0.64281 0.0297,-0.57077 0.0272,-0.28527 2.39299,-1.59287 1.8052,-1.3249 0.0297,-0.57076 0.31377,-0.27036 0.36119,-1.42439 0.0149,-0.28538 0.32866,-0.55575 0.11704,-1.99754 2.10661,-1.60778 0.28638,0.0149 0.85894,0.0571 0.28637,0.0149 0.55774,0.3152 0.28638,0.0149 0.8714,0.0573 0.55779,0.3152 0.28633,0.0149 1.14532,0.0721 0.28633,0.0149 0.0149,-0.28538 0.0148,-0.28538 0.10225,-1.72458 -0.25647,-0.58567 1.17285,-0.22562 0.28633,0.0149 0.5726,0.0422 0.27141,0.30029 0.27141,0.3003 1.41672,0.37234 1.15789,0.0597 0.27126,0.31271 0.55778,0.3152 0.28634,0.0149 1.16039,-0.22574 0.55767,0.32762 0.25644,0.58567 2.21602,1.55861 0.55763,0.32762 0.55774,0.3152 1.13039,0.35745 1.13049,0.34503 0.87137,0.0572 0.88898,-0.52602 0.84411,0.33012 0.5726,0.0422 0.63001,-0.82621 0.58767,-0.25555 0.28634,0.0149 0.28633,0.0149 0.28637,0.0149 0.28638,0.0149 0.55764,0.32762 -0.77179,-1.48394 -0.52774,-0.89838 -0.25648,-0.58567 0.6001,-0.25545 1.17525,-0.49869 0.3013,-0.27047 0.88644,-0.24053 1.1e-4,-0.0124 1.47651,-0.76917 1.48897,-0.76905 1.18775,-0.51101 0.5427,0.613 0.57271,0.0298 1.71802,0.1019 0.87152,0.0448 0.27141,0.30029 0.53023,0.61289 2.27331,0.70258 0.84412,0.33012 2.83344,0.7447 1.73048,0.10201 0.85906,0.0447 0.5727,0.0298 1.42915,0.37247 0.57273,0.0298 1.70308,0.38727 0.85906,0.0447 -0.0149,0.28538 1.71553,0.38738 1.14531,0.0721 0.58765,-0.25555 0.3013,-0.27047 0.91636,-0.81129 1.20271,-0.79638 0.6025,-0.52853 0.6026,-0.54093 0.31375,-0.27035 0.30131,-0.27047 1.50401,-1.06685 0.28635,0.0149 0.60261,-0.54093 0.61505,-0.54082 1.74791,-0.46888 1.17282,-0.22562 0.82906,0.62791 0.57272,0.0298 1.1453,0.0721 0.28636,0.0149 0.0274,-0.28527 -0.51282,-1.18376 -0.10938,-3.16639 0.0149,-0.28538 -0.42563,-2.61054 -0.41068,-2.89592 -0.44057,-2.32517 0.0149,-0.28538 0.0274,-0.28527 -0.6522,-3.76696 0.28636,0.0149 1.2326,-1.36713 -0.21401,-1.16874 -1.07068,-1.48654 -0.79918,-1.19867 0.7198,-2.5509 0.67484,-1.68234 0.88646,-0.24054 0.6599,-1.39696 0.63249,-1.11169 0.63001,-0.82621 1.16025,-0.21331 0.64495,-1.11159 1.71813,0.0895 0.61495,-0.52841 0.3313,-0.85364 0.34365,-0.84112 0.30129,-0.27047 0.0149,-0.28538 0.31625,-0.55584 0.31376,-0.27036 0.0149,-0.28538 0.58766,-0.25555 0.3013,-0.27048 0.0149,-0.28537 0.31377,-0.27036 0.28624,0.0273 0.28635,0.0149 0.61755,-0.82631 0.61506,-0.54083 0.3013,-0.27047 0.3013,-0.27047 0.3013,-0.27046 0.60011,-0.25545 0.58766,-0.25555 0.5726,0.0422 0.58765,-0.25555 0.55776,0.3152 0.28636,0.0149 0.58517,0.0299 0.28624,0.0273 0.3313,-0.85364 2.06167,-0.73923 0.0149,-0.28538 -0.28636,-0.0149 0.0149,-0.28538 0.0149,-0.28538 0.0149,-0.28538 9.85303,-5.76076 0.3013,-0.27047 0.0149,-0.28538 -0.28636,-0.0149 -0.27141,-0.30029 -0.28635,-0.0149 -0.2713,-0.3127 -0.25646,-0.58567 -0.27141,-0.30029 -0.55776,-0.31521 0.0149,-0.28538 -0.24389,-0.59797 -0.27141,-0.30029 0.0149,-0.28538 -0.28635,-0.0149 -0.28635,-0.0149 -0.28636,-0.0149 -0.28625,-0.0273 0.0149,-0.28538 -0.28636,-0.0149 -0.27141,-0.30029 -0.28635,-0.0149 -0.27141,-0.3003 -0.28635,-0.0149 -0.2987,-0.0274 -0.25896,-0.30018 -0.2988,-0.015 -0.28636,-0.0149 0.0149,-0.28539 0.0274,-0.28527 0.58765,-0.25555 0.0149,-0.28538 0.31625,-0.55585 0.60011,-0.25544 0.31624,-0.55586 0.0149,-0.28538 0.63001,-0.8262 0.0299,-0.57075 0.3013,-0.27047 0.0149,-0.28538 0.0149,-0.28538 0.3587,-1.13891 0.3012,-0.25806 0.3013,-0.27046 0.31375,-0.27036 0.0149,-0.28538 0.015,-0.29779 0.30119,-0.25805 0.30131,-0.27048 0.015,-0.29779 0.3287,-0.55574 0.60248,-0.52851 0.58767,-0.25556 -0.48542,-1.46902 -0.52787,-0.88597 1.51896,-1.35222 0.27141,0.30029 0.54281,0.60058 0.55766,0.32762 0.27141,0.30029 -0.0149,0.28538 0.28636,0.0149 -0.0149,0.28538 -0.0149,0.28538 0.28636,0.0149 0.2713,0.31271 -0.0149,0.28538 -0.0274,0.28527 0.29881,0.015 0.28635,0.0149 0.55777,0.31521 -0.015,0.29779 0.51542,0.88585 -0.0149,0.28538 -0.0149,0.28538 -0.0149,0.28538 0.28636,0.0149 -0.0149,0.28538 0.28625,0.0273 0.27141,0.30029 0.57271,0.0298 0.28635,0.0149 0.8739,-0.22823 1.74553,-0.1958 0.35859,-1.12649 0.28636,0.0149 1.1752,-0.49869 0.28635,0.0149 0.60011,-0.25544 0.28637,0.0149 0.28635,0.0149 0.61754,-0.82631 0.31376,-0.27035 0.31624,-0.55586 0.30131,-0.27046 0.58765,-0.25556 0.31376,-0.27035 0.58754,-0.24314 1.48907,-0.78147 1.2625,-1.9379 0.33119,-0.84123 0.32871,-0.55573 0.88895,-0.52602 0.55776,0.3152 0.88636,-0.22813 1.17531,-0.5111 0.34365,-0.84111 1.19026,-0.7965 0.31375,-0.27036 0.91886,-1.09677 0.28635,0.0149 0.3287,-0.55573 1.19015,-0.78409 1.51895,-1.35222 0.60012,-0.25545 0.31624,-0.55584 0.0449,-0.85614 0.34366,-0.84112 0.58765,-0.25555 0.61505,-0.54083 1.16036,-0.22573 1.56381,-2.20836 1.15776,0.0722 0.9039,-0.81141 0.63001,-0.8262 0.5727,0.0298 1.18766,-0.49859 0.31625,-0.55585 2.09167,-1.32239 0.63,-0.82621 0.6026,-0.54094 0.0149,-0.28538 1.8052,-1.3249 0.88647,-0.24053 0.31624,-0.55584 3.79226,-0.64965 1.43165,0.087 1.44673,-0.21082 2.00188,0.40229 0.5726,0.0422 0.80216,1.18628 0.88885,-0.5136 0.90141,-0.52592 0.88896,-0.52602 0.34365,-0.84112 1.73297,-0.18349 2.36307,-1.02212 1.70058,0.67276 1.4765,-0.76916 0.94626,-1.38205 0.57271,0.0298 1.18776,-0.511 0.8739,-0.22823 3.26438,-1.53561 1.77542,-0.76656 2.34802,-0.72431 0.57271,0.0298 0.91636,-0.8113 0.58755,-0.24314 1.17531,-0.5111 0.31376,-0.27037 0.90389,-0.8114 1.74543,-0.18338 1.60094,2.09944 3.00021,3.04265 0.54271,0.61299 1.08552,1.21359 2.14376,2.70001 0.90131,-0.51349 0.31624,-0.55585 1.50402,-1.06685 1.77542,-0.76656 1.80521,-1.32489 1.504,-1.06685 0.27141,0.30029 0.54271,0.613 0.84412,0.33011 0.81412,0.91329 0.82917,0.6155 0.58754,-0.24314 0.28635,0.0149 0.85906,0.0447 1.37189,1.2285 0.82906,0.62791 1.23261,-1.36714 0.65989,-1.39697 0.045,-0.86855 0.0149,-0.28537 0.0149,-0.28538 -0.27141,-0.3003 0.0274,-0.28526 0.0149,-0.28538 0.0149,-0.28538 0.28635,0.0149 0.0149,-0.28538 0.0149,-0.28538 0.3287,-0.55573 0.0149,-0.28538 0.03,-0.58317 0.0449,-0.85614 0.28635,0.0149 0.0274,-0.28527 0.0299,-0.57076 -0.27141,-0.30029 -0.25646,-0.58568 -0.18412,-1.73949 0.3611,-1.41198 -0.45553,-2.03978 -0.19906,-1.45412 0.30131,-0.27047 0.28624,0.0273 0.28636,0.0149 0.0149,-0.28538 0.28636,0.0149 0.31375,-0.27036 0.28635,0.0149 0.0299,-0.57075 0.30131,-0.27048 1.95953,0.97294 0.3013,-0.27047 0.64496,-1.11158 0.0149,-0.28537 0.0149,-0.28539 0.34364,-0.84112 0.0149,-0.28538 0.28635,0.0149 0.57272,0.0298 0.28635,0.0149 0.28636,0.0149 0.0149,-0.28538 0.29881,0.015 0.3013,-0.27046 0.31625,-0.55585 0.31625,-0.55584 0.31375,-0.27036 0.61755,-0.82631 0.90131,-0.51351 0.61754,-0.82631 0.015,-0.29779 0.9312,-1.08426 0.3013,-0.27047 0.015,-0.29779 0.61494,-0.52841 0.58766,-0.25555 0.94625,-1.38206 0.63001,-0.8262 0.58765,-0.25555 1.1753,-0.51112 0.60012,-0.25544"
     style="fill:none;stroke:#646464;stroke-width:1;stroke-linecap:round;stroke-linejoin:round;stroke-miterlimit:4;stroke-opacity:1;stroke-dasharray:none" /><path
     sodipodi:nodetypes="cccccccccccccccccccccccccccccccccccccccccccccccccccccccccccccccccccccccccccccccccccccccccccccccccccccccccccccccccccccccccccccccccccccccccccccccccccccccccccccccccccccccccccccccccccccccccccccccccccccccccccccccccccccccccccccccccccccccccccccccccccccccccccccccccccccccccccccccccccccccccccccccccccccccccccccccccccccccccccccccccccccccccccccccccccccccccccccccccccccccccccccccccccccccccccccccccccccccccccccccc"
     id="path5487"
     d="m 929.96485,249.35906 -1.59144,0.41558 -2.05433,0.41806 -0.5721,-0.0398 -0.28541,-0.0203 -0.31842,0.26484 -0.0199,0.28507 -0.30598,0.26517 -0.30596,0.26517 -0.59203,0.24526 -0.58423,-0.0525 -0.0199,0.28508 -0.59202,0.24525 -2.0945,1.00063 -0.87776,0.21293 -1.1965,0.4902 -0.30598,0.26517 -1.8483,1.59067 -0.6244,0.53001 -0.0199,0.28508 0.79839,0.91495 0.26612,0.30498 1.56374,2.13947 1.08409,0.94726 -0.32589,0.55024 -0.57178,-0.0522 -1.19651,0.49019 -1.20397,0.7756 -0.60448,0.24493 -0.89767,0.49802 -0.6244,0.53001 -0.61195,0.53033 -0.93038,0.79518 -0.61195,0.53033 -0.30598,0.26518 -0.30597,0.26516 -0.93038,0.79518 -0.93006,0.78276 -0.63187,0.81542 -0.6244,0.53 -0.0199,0.28508 -0.30597,0.26516 -0.0402,0.58256 -0.64433,0.81508 -0.0199,0.28508 -0.32591,0.55025 -0.0199,0.28508 -0.0324,0.28475 -0.38567,1.40546 -0.0199,0.28508 0.2135,0.88721 -0.0398,0.57015 -0.0199,0.28508 -0.0199,0.28508 -0.33835,0.54991 -0.61195,0.53033 -0.3259,0.55025 -0.0199,0.28508 -0.31842,0.26483 -0.0199,0.28508 -0.0199,0.28508 -0.63188,0.81541 -0.31842,0.26484 -0.0398,0.57015 -0.34583,0.83532 -0.28605,-0.0199 -0.31842,0.26484 -0.87808,0.22535 -0.30598,0.26517 -0.28605,-0.0199 -0.62407,0.5176 -0.61195,0.53034 -0.32591,0.55024 -0.31842,0.26485 -0.0398,0.57014 -0.0402,0.58257 -0.0722,0.85489 -0.0199,0.28508 -0.36574,1.12039 -0.31843,0.26484 -0.30598,0.26517 -0.28604,-0.0199 -0.61196,0.53034 -0.60448,0.24493 -0.30597,0.26516 -0.0199,0.28508 -0.0199,0.28508 -0.0398,0.57015 -0.30597,0.26517 -0.66425,1.10016 -1.12395,-0.37712 -1.97464,-0.72224 -1.41033,-0.38461 -0.57177,-0.0522 0.0199,-0.28508 -0.91792,0.7955 -2.43286,1.55054 -1.80813,1.00811 -2.44033,1.83594 -1.8405,1.29287 -1.4701,0.47062 -0.93038,0.79516 -1.1638,0.19305 -0.30597,0.26516 -0.60448,0.24494 -0.63188,0.81541 -1.01008,1.93547 -0.0324,0.28475 0.26613,0.30498 -0.0199,0.28508 -0.0202,0.29748 0.55218,0.3249 -0.0199,0.28507 -0.0398,0.57016 -0.35827,0.83498 -0.0398,0.57016 -0.34615,0.84772 -0.0324,0.28475 1.31037,1.82239 -0.0199,0.28508 1.02433,1.80249 0.5198,0.60965 -0.61195,0.53033 -0.898,0.51043 -0.91045,0.5101 -0.89768,0.49801 -0.60447,0.24494 -0.0199,0.28507 0.512,0.90745 0.26613,0.30499 -0.0722,0.8549 -0.32591,0.55024 -0.93037,0.79517 -0.3259,0.55025 -0.36575,1.12039 -0.0324,0.28475 -0.0202,0.29748 -0.0199,0.28508 -0.5917,0.23285 0.2658,0.31739 -0.28605,-0.0199 -1.23603,1.04793 -0.37852,1.13248 -0.30565,0.25275 -0.68451,1.39764 -0.63187,0.81541 -1.27621,1.63051 -0.62407,0.51759 -0.59202,0.24526 -0.28606,-0.0199 -0.59202,0.24526 -0.24662,-0.59012 -0.0722,0.85489 -0.0398,0.57015 -0.0199,0.28508 -0.34582,0.83531 -0.33836,0.54992 -0.30597,0.26518 -0.30598,0.26516 -0.6244,0.53 -0.59202,0.24527 -0.61195,0.53033 -0.512,-0.90745 0.5917,-0.23285 -0.26581,-0.31739 1.19618,-0.47779 -0.20602,-1.17261 -0.57211,-0.0398 -1.18405,0.49051 0.25368,0.30465 -1.20398,0.7756 -0.5917,0.23285 -3.03881,-1.95457 -0.30598,0.26516 -0.28605,-0.0199 -0.26612,-0.30498 -0.0199,0.28508 -0.59204,0.24526 -0.0199,0.28508 -0.28605,-0.0199 -0.60447,0.24493 0.0199,-0.28508 0.28604,0.0199 -0.55184,-0.3373 -0.5198,-0.60964 -0.81798,-0.64228 -0.53226,-0.60996 -1.08409,-0.94727 -0.53226,-0.60997 -0.81797,-0.64228 -0.53226,-0.60996 -0.49207,-1.19253 -0.21384,-0.87481 -0.49207,-1.19252 -0.53225,-0.60997 -1.21643,0.77527 -1.44985,0.17313 -0.91046,0.5101 -0.63187,0.81541 -0.89052,0.22503 -0.30598,0.26517 -0.89767,0.49801 -0.62441,0.53001 -0.28605,-0.0199 -0.30598,0.26517 -0.28604,-0.0199 -0.32591,0.55025 -0.55217,-0.3249 -0.26581,-0.31739 -0.28604,-0.0199 -0.26613,-0.30498 -0.26613,-0.30498 -0.28605,-0.0199 -0.0199,0.28508 -0.0522,0.56982 -0.30598,0.26517 -0.61195,0.53033 -0.33835,0.54992 -0.30598,0.26517 -0.0199,0.28507 -0.59203,0.24527 -0.31842,0.26483 -0.28606,-0.0199 0.53226,0.60996 -0.6518,1.10049 0.47962,1.1922 -0.0199,0.28508 -0.55186,-0.3373 -0.61195,0.53033 0.53192,0.62238 0.26613,0.30498 -0.89052,0.22502 -1.16381,0.19303 -0.5721,-0.0398 -0.58455,-0.0401 0.77845,1.20003 -0.61195,0.53033 -1.29613,1.91557 -0.35827,0.83499 0.2658,0.31739 -0.28573,-0.0323 0.26581,0.3174 -0.30598,0.26516 -0.0199,0.28508 -0.0324,0.28475 -0.61194,0.53033 0.53225,0.60997 -0.64433,0.81509 -0.63187,0.8154 -0.55218,-0.32489 -0.33835,0.54992 -1.39008,-0.6821 -0.26613,-0.30498 -0.30597,0.26517 -0.24587,-0.60247 -0.59203,0.24526 -0.59203,0.24526 -0.28605,-0.0199 -0.60448,0.24494 -0.53193,-0.62238 -2.11442,1.28569 -0.26613,-0.30498 -0.2658,-0.31739 -0.53225,-0.60997 -0.25368,-0.30465 -0.79805,-0.92736 -0.53225,-0.60996 -0.53193,-0.62238 -0.5721,-0.0398 -0.85816,-0.0597 -0.8902,0.21261 -0.28604,-0.0199 -0.28606,-0.0199 -1.1442,-0.0796 -0.8902,0.21261 -0.59203,0.24526 -0.898,0.51042 0.23375,0.58974 -0.898,0.51042 -0.62441,0.53002 -0.0199,0.28507 -0.0398,0.57015 -0.28606,-0.0199 -0.0199,0.28508 -0.91046,0.5101 -0.32589,0.55024 -0.61195,0.53033 -1.5747,1.61026 -0.28574,-0.0323 -1.54232,1.32551 -0.61196,0.53033 -0.59202,0.24526 -0.31842,0.26485 -0.28606,-0.0199 -1.7882,0.72304 1.04426,1.51742 0.26613,0.30498 0.20602,1.17262 -0.0199,0.28507 -1.15632,-0.0924 -0.57211,-0.0398 -0.57209,-0.0398 -1.42993,-0.11197 -0.29851,-0.0202 -0.85815,-0.0597 -1.14388,-0.0921 -0.0398,0.57015 -0.0925,1.15239 0.11419,2.30017 -0.0184,4.03513 -0.0797,1.1403 0.22627,0.87513 0.85784,0.0722 -0.0398,0.57014 -0.93038,0.79518 0.53226,0.60997 0.55185,0.3373 1.10435,0.64978 -1.1965,0.49019 -3.27823,1.47874 1.14568,3.82967 2.08884,3.02242 0.28572,0.0323 1.25808,2.39223 0.30597,-0.26517 0.0324,-0.28475 0.0398,-0.57016 0.0402,-0.58256 0.0199,-0.28507 0.28572,0.0323 0.28606,0.0199 0.28605,0.0199 0.26613,0.30498 -0.0199,0.28508 -0.0199,0.28507 0.28604,0.0199 0.33835,-0.54992 0.30598,-0.26517 0.32591,-0.55024 0.30596,-0.26516 0.0199,-0.28508 0.2985,0.0202 0.0199,-0.28508 0.26613,0.30499 -0.0327,0.29716 -0.0199,0.28508 0.58455,0.0401 0.28605,0.0199 -0.0324,0.28474 0.29851,0.0202 -0.0324,0.28475 -0.0398,0.57014 0.28573,0.0323 0.55218,0.3249 0.28605,0.0199 0.87061,0.06 0.28572,0.0323 0.0402,-0.58256 0.5917,-0.23285 0.0199,-0.28507 0.28605,0.0199 0.26612,0.30498 -0.30597,0.26516 -0.28605,-0.0199 -0.0199,0.28508 -0.0199,0.28507 -0.0199,0.28508 0.28606,0.0199 0.30598,-0.26517 0.28604,0.0199 0.22596,0.88754 0.28605,0.0199 0.28604,0.0199 0.28606,0.0199 0.28605,0.0199 -0.4383,1.9877 -0.68418,1.38524 0.60448,-0.24494 0.25368,0.30465 0.26612,0.30499 0.53193,0.62237 0.75853,1.48511 0.53192,0.62236 0.47995,1.1798 0.20603,1.17262 0.85816,0.0597 -0.0199,0.28508 -0.1522,2.0076 -0.57211,-0.0398 0.38,2.61758 -2.30052,-0.172 -0.87776,0.21294 -1.45017,0.18554 -0.28606,-0.0199 0.21383,0.87481 -0.0199,0.28508 -0.0199,0.28506 0.24619,0.59007 0.24227,4.93496 -3.5027,4.34124"
     style="fill:none;stroke:#646464;stroke-width:1;stroke-linecap:round;stroke-linejoin:round;stroke-miterlimit:4;stroke-opacity:1;stroke-dasharray:none" /><path
     id="path5421"
     d="m 1000.1927,461.3745 -0.2863,-0.0159 -0.8589,-0.0477 -3.67036,-1.37314 -6.18656,-2.38458 -0.27021,-0.31364 -2.82748,-1.02766 -1.12911,-0.36139 -1.68577,-0.67854 -6.46938,-2.68596 -4.46875,-2.28911 -2.78299,-1.61057 -1.11332,-0.6343 0.92267,-1.09356 3.82022,-5.80029 -5.78851,-4.37835 -0.54057,-0.61488 -0.25441,-0.58657 -0.51233,-0.88765 -0.52462,-0.90021 -0.77903,-1.48678 -0.75065,-1.77195 0.0319,-0.57064 -0.25441,-0.58657 0.15608,-2.58019 -0.58854,0.2535 -0.55666,-0.31715 -0.54056,-0.61489 -0.2863,-0.0159 -1.14521,-0.0637 -1.47568,0.47853 -0.58854,0.25349 -0.58856,0.2535 -3.16145,-0.2 -2.48091,-1.86757 0.0159,-0.28533 0.0319,-0.57065 -0.28614,-0.0283 0.0159,-0.28533 0.34658,-0.83991 0.0319,-0.57065 0.0319,-0.57065 -0.25441,-0.58657 -0.55652,-0.32956 -0.62042,0.82415 -1.09738,-0.91962 -0.8428,-0.34548 -0.25442,-0.58656 0.91919,-0.80809 -2.17852,-2.14939 -1.20548,0.79217 -0.5726,-0.0318 -0.27036,-0.30123 -0.25426,-0.59899 -0.82702,-0.61838 -2.11207,1.58801 1.06535,1.50269 -0.68071,1.67997 -0.27036,-0.30124 -0.27036,-0.30123 -0.27036,-0.30124 -1.33569,-1.80392 -0.28631,-0.0159 -0.27021,-0.31365 -0.27035,-0.30123 -1.09722,-0.93205 0.31469,-0.26925 0.60434,-0.52642 -0.27021,-0.31365 -0.27036,-0.30124 -0.27036,-0.30123 -0.2863,-0.0159 -0.60449,0.53882 -0.87119,-0.0602 -1.16115,0.22167 0.0478,-0.85597 0.0159,-0.28533 -0.19398,-1.4548 -0.57261,-0.0318 -1.14505,-0.0761 -0.29876,-0.016 -2.15011,-2.43457 -1.97206,-0.69445 -3.0819,-1.61422 -0.28615,-0.0283 -1.41556,-0.36488 -0.57245,-0.0442 -0.2863,-0.0159 -0.27036,-0.30125 -0.58854,0.25351 -0.31471,0.26925 -0.28629,-0.0159 -0.60449,0.53883 -0.88715,0.22503 -0.28629,-0.0159 0.5565,0.32955 -0.0159,0.28533 -0.63638,1.10948 -0.33064,0.55459 -0.99889,2.23471 -0.33413,0.84006 -0.33064,0.5546 -0.62043,0.82415 -0.0159,0.28533 -0.31471,0.26925 -0.30224,0.26942 -0.0159,0.28533 -0.36252,1.12523 -0.31819,0.55474 -0.0159,0.28533 -0.016,0.29774 4.59912,4.87279 0.27036,0.30123 1.09723,0.93205 1.08128,1.21736 0.81108,0.90371 0.79847,0.91597 1.65388,1.24919 -0.35008,1.12539 -0.33064,0.55459 -0.62042,0.82415 -0.82702,-0.61839 -0.58854,0.2535 -0.91919,0.80809 -1.12911,-0.36138 -1.95613,-0.97977 -1.1291,-0.3614 -1.68228,-0.96401 -2.56062,-0.44094 -0.57259,-0.0318 -0.27021,-0.31366 -1.42802,-0.36503 -2.22032,3.31222 -0.60449,0.53883 -0.31818,0.55473 -1.29765,2.21865 -0.0159,0.28533 -0.0159,0.28533 -0.95108,1.37874 -0.95106,1.37873 -1.26926,1.93348 -0.33413,0.84007 -0.31469,0.26926 -0.0159,0.28533 -0.60448,0.53883 -0.30225,0.26941 -0.34658,0.83992 -1.09722,-0.93205 -1.65388,-1.24918 -1.22143,1.0775 -1.20897,1.07765 -1.79403,1.04568 -2.39488,1.28662 -2.35053,0.71612 -0.2863,-0.0159 -0.82687,-0.6308 -2.35068,0.72853 -1.09723,-0.93204 -1.36758,-1.23328 -2.16004,2.4564 -1.52367,1.34691 -1.53947,1.61983 -0.27035,-0.30123 -1.14172,-0.34913 -0.27021,-0.31365 -0.28629,-0.0159 -0.84297,-0.33306 -0.51216,-0.90007 -1.79412,1.04544 -0.61695,0.53869 -1.80982,1.31858 -2.57306,-0.44109 -0.55667,-0.31715 -1.12911,-0.36139 -0.84295,-0.33306 -2.87515,-0.18409 -2.56062,-0.44095 -1.47585,0.49094 -1.40547,-5.26827 -0.11428,-2.88142 0.0159,-0.28532 0.37847,-1.41057 1.74605,-0.17729 0.5726,0.0318 0.5726,0.0318 0.30224,-0.26942 1.80983,-1.31859 0.33064,-0.55458 1.30129,-2.51655 1.32953,-2.7893 -0.5726,-0.0318 -1.11317,-0.64671 -1.42787,-0.37745 -2.25836,-0.71036 1.57149,-2.20289 -0.55666,-0.31716 -0.27036,-0.30123 -1.32324,-1.80377 0.62043,-0.82415 0.36268,-1.13766 0.62043,-0.82415 0.66477,-1.39465 0.96701,-1.66406 0.98295,-1.94939 -0.82702,-0.61839 -3.0374,-2.19713 -0.52811,-0.61474 -0.85542,-0.33321 -0.84281,-0.34548 -0.55665,-0.31714 -2.27432,-0.42504 -0.8428,-0.34547 -0.57261,-0.0318 -0.55666,-0.31714 -0.85526,-0.34563 -1.12926,-0.34897 -0.90658,0.79582 -0.91918,0.80809 -1.23737,1.36283 -1.70171,-0.39321 0.22587,0.88415 -0.35007,1.12539 -0.30225,0.26941 -0.95106,1.37874 -0.57261,-0.0318 -0.88714,0.22502 -0.28631,-0.0159 -0.91918,0.80808 -1.17708,0.507 -1.70172,-0.39321 -1.09722,-0.93203 -0.8873,0.23744 -0.22586,-0.88415 -0.27036,-0.30124 -0.28631,-0.0159 -0.58505,-0.0319 -0.57261,-0.0318 -0.30209,0.257 -0.33428,0.85248 -0.29859,-0.0285 -0.87485,0.23759 -0.28631,-0.0159 -0.27035,-0.30124 -0.27036,-0.30123 -0.54057,-0.61489 -0.54072,-0.60248 -1.14504,-0.0761 -0.30225,0.26942 -0.27036,-0.30125 -1.7017,-0.3932 -0.58506,-0.0319 -0.87484,0.23759 -1.38353,-0.94796 -0.2863,-0.0159 -1.35164,-1.51859 -1.41542,-0.3773 -1.39945,-0.66263 -0.28631,-0.0159 -1.39946,-0.66263 -1.14157,-0.36153 -1.66983,-0.96386 0.33064,-0.55458 -0.27035,-0.30124 -2.21055,-1.56634 -1.38352,-0.94795 -3.86427,-2.82793 -1.66983,-0.96386 -0.54072,-0.60247 -1.65388,-1.24919 -4.49713,-2.00403 -0.60449,0.53883 -0.87485,0.23759 -0.91918,0.80809 -2.42676,1.85726 -1.20897,1.07766 -0.601,0.25334 -0.90673,0.80825 -0.8428,-0.34548 -2.1725,2.45625 0.27036,0.30123 -2.38257,1.29918 0.82702,0.61839 -0.95108,1.37873 -0.31469,0.26927 -1.19303,0.79232 -0.55666,-0.31714 -3.69602,3.79075 -0.98294,1.94939 -0.63289,0.82399 -0.33413,0.84007 -0.33064,0.55459 -0.62043,0.82415 -0.63289,0.824 -0.31818,0.55474 -0.64897,1.12174 -4.76485,2.57354 -0.88729,0.23744 -1.46339,0.49108 -0.30209,0.257 -1.4599,0.20562 -1.7336,0.17744 -0.29876,-0.016"
     style="fill:none;stroke:#646464;stroke-width:1;stroke-linecap:round;stroke-linejoin:round;stroke-miterlimit:4;stroke-opacity:1;stroke-dasharray:none" /><path
     sodipodi:nodetypes="cccccccccccccccccccccccccccccccccccccccccccccccccccccccccccccccccccccccccccccccccccccccccccccccccccccccccccccccccccccccccccccccccccccccccccccccccccccccccccccccccccccccccccccccccccccccccccccccc"
     id="path5453"
     d="m 983.30359,295.76993 -0.0958,-1.16128 0.036,2.01651 -0.33835,0.54992 -0.3259,0.55024 -0.30598,0.26516 -0.35828,0.835 -0.0797,1.1403 -0.0526,0.58223 -0.0996,1.42538 -0.0522,0.56983 -0.0398,0.57014 -0.0199,0.28508 -0.32591,0.55025 -1.29611,1.91556 -0.0527,0.58223 -0.32591,0.55024 -0.3782,1.12008 -0.0398,0.57015 -0.63187,0.81541 -0.0324,0.28475 -0.28605,-0.0199 -0.34582,0.83533 -0.0398,0.57014 -0.0199,0.28508 0.28605,0.0199 0.49955,0.90712 -0.3259,0.55025 -0.0597,0.85522 0.28605,0.0199 -0.6244,0.53001 3.38463,1.11926 -0.0199,0.28508 0.49954,0.90712 0.75854,1.4851 0.95029,-1.08025 0.63188,-0.81541 2.10844,2.74975 0.79805,0.92736 2.38203,2.76933 -2.17387,2.12852 -1.88068,1.87542 -2.17421,2.14093 -0.0199,0.28507 -1.21643,0.77527 -0.30598,0.26517 -2.43252,1.53812 -1.08411,-0.94726 -0.55217,-0.32489 -1.35024,-1.25225 -3.02661,-1.95476 -2.15609,-1.88179 -0.0522,0.56983 -0.68417,1.38523 -0.32591,0.55024 -0.34582,0.83532 -0.0199,0.28508 -0.0324,0.28474 -0.1,1.43779 -0.30597,0.26517 -0.0324,0.28475 -0.30597,0.26516 -0.0199,0.28508 -0.28606,-0.0199 -2.3603,0.68323 -0.28605,-0.0199 -0.0199,0.28507 -0.28605,-0.0199 -0.0199,0.28508 -0.0324,0.28475 0.2462,0.59005 -0.0199,0.28508 -0.0398,0.57015 -0.0199,0.28508 -0.0526,0.58223 -0.30598,0.26517 -0.0199,0.28507 -0.30597,0.26517 -0.30598,0.26517 -1.542,1.3131 -0.31842,0.26485 -0.30598,0.26516 -0.30597,0.26517 -0.30598,0.26517 -0.35827,0.83499 -0.0199,0.28508 -0.34582,0.83531 -0.55218,-0.32489 -2.81286,-1.06703 -1.928,2.73097 -2.29873,3.56564 -1.88815,2.16084 -0.72402,1.95538 -1.27621,1.63049 -0.3782,1.12007 -0.30597,0.26517 -0.99016,1.6504 1.08411,0.94726 -0.3259,0.55025 0.49988,0.89471 -0.0199,0.28508 -0.32622,0.56265 -0.0199,0.28508 -0.30597,0.26516 -0.35827,0.835 0.57209,0.0398 0.81831,0.62987 1.12395,0.37711 -1.41419,7.37607 -0.0722,0.8549 -0.0398,0.57016 0.24621,0.59005 -0.99048,1.66282 -1.1638,0.19303 -0.89053,0.22502 -2.09418,0.98821 -0.08,1.15271 -0.0523,0.56983 -0.0199,0.28508 0.26613,0.30498 0.26613,0.30498 0.83789,0.3572 0.28606,0.0199 0.5721,0.0398 0.26612,0.30498 0.55185,0.3373 0.53226,0.60997 -0.0199,0.28508 0.53225,0.60996 0.26581,0.31739 -0.0199,0.28508 -0.0199,0.28507 -0.28606,-0.0199 -0.0199,0.28508 -0.60448,0.24493 -0.28604,-0.0199 -0.0199,0.28508 -0.28573,-0.0323 -0.30597,0.26517 -0.30598,0.26516 -0.0324,0.28475 -0.28605,-0.0199 -0.0199,0.28507 -0.28605,-0.0199 -0.30597,0.26517 -0.0199,0.28508 -0.0199,0.28508 0.28605,0.0199 -0.0202,0.29748 0.26613,0.305 0.21383,0.8748 -0.0199,0.28507 -0.30597,0.26517 -0.30598,0.26517 -0.0204,0.28497 -0.2985,-0.0202 -0.3259,0.55024 -0.59203,0.24526 -0.30597,0.26517 -0.33835,0.54991 -0.0199,0.28508 -0.32591,0.55025 -0.30597,0.26516 -0.60447,0.24493 -0.30598,0.26517 0.51233,0.89504 0.55185,0.3373 -0.0199,0.28508 1.06451,1.21993 1.19798,3.25986 0.23375,0.58973 1.44418,3.84991 -0.63188,0.81541 1.58399,1.84199 -0.30598,0.26516 -3.44473,-0.25163 -1.21611,0.76286 -0.30597,0.26517 -0.91792,0.7955 -0.62441,0.53001 -0.91793,0.7955 -0.31842,0.26484 -0.3259,0.55025 -0.59203,0.24525 -1.10402,-0.66218 -0.55218,-0.3249 -1.10403,-0.66219 -0.53225,-0.60996 -0.57178,-0.0522 -0.37852,1.13247 -2.09238,4.72585 -0.84132,2.07154"
     style="fill:none;stroke:#646464;stroke-width:1;stroke-linecap:round;stroke-linejoin:round;stroke-miterlimit:4;stroke-opacity:1;stroke-dasharray:none" /><path
     sodipodi:nodetypes="ccccccccccccccccccccccccccccccccccccccccccccccccccccccccccccccccccccccccccccccccccccccccccccccccccccccccccccccccccccccccccccccccccc"
     id="path5507"
     d="m 746.75726,341.32824 -0.0431,0.57204 -0.0862,1.1441 -0.90409,0.50746 -0.90409,0.50746 -1.19101,0.48592 -0.90412,0.50745 -1.2126,0.77196 -1.49953,0.75041 -0.61714,0.52899 -1.49954,0.75043 -0.3085,0.2645 -0.90413,0.50745 -0.3085,0.26451 -0.30852,0.26449 -0.30863,0.26448 -0.88239,0.22144 -0.90409,0.50745 -0.59557,0.24297 -0.30851,0.2645 0.24381,0.59356 0.26554,0.30758 0.22229,0.87959 0.26539,0.30756 0.26541,0.30755 0.55249,0.3291 0.26539,0.30754 -0.0215,0.28602 -0.0647,0.85809 0.24386,0.59357 -0.0215,0.28603 0.7963,0.92267 0.26542,0.30755 -0.0215,0.28603 -0.0215,0.28602 0.22241,0.87961 0.28698,0.0215 0.26539,0.30753 0.26542,0.30756 0.28706,0.0215 -0.0433,0.57203 -0.0429,0.57207 0.28695,0.0215 -0.0215,0.28603 0.26544,0.30754 0.24381,0.59359 0.24398,0.59358 0.26542,0.30756 0.26537,0.30755 0.26555,0.30757 -0.0215,0.286 0.24385,0.5936 -0.35163,0.83654 0.20073,1.16563 -0.0215,0.28603 0.26538,0.30755 0.26542,0.30755 0.28706,0.0215 0.53082,0.61509 0.26537,0.30758 -0.0433,0.57203 0.28707,0.0215 0.22229,0.87959 -0.0214,0.28604 -0.0215,0.28603 0.53079,0.6151 0.26554,0.30757 -0.0215,0.28602 0.24386,0.59359 -0.0215,0.28602 -0.0647,0.85807 -0.0215,0.28602 -0.0429,0.57206 -0.0433,0.57204 -0.33007,0.55052 -0.30863,0.2645 -0.0433,0.57204 -0.0215,0.28602 -0.0215,0.28603 -0.0214,0.28603 -0.0215,0.28603 -0.0215,0.28603 -0.0215,0.28602 -0.30851,0.2645 -0.0215,0.28603 0.22228,0.8796 -0.0433,0.57205 0.61714,-0.52899 0.88256,-0.22144 0.59546,-0.24296 0.59555,-0.24297 0.3085,-0.26449 0.59546,-0.24297 0.28708,0.0215 0.55235,0.32908 1.08329,0.94419 0.28694,0.0215 0.81788,0.63666 0.55247,0.32908 0.35163,-0.83655 1.71509,-3.61068 -0.24386,-0.59356 0.57404,0.043 0.90397,-0.50746 1.16949,-0.1999 6.26385,-2.69413 1.16949,-0.1999 0.59546,-0.24297 3.28617,-1.4793 0.86099,0.0646 1.14795,0.0861 2.60437,-0.0922 2.31742,-0.11383 2.89146,-0.0707 2.89134,-0.0707 2.03047,-0.1353 1.14793,0.0861 0.52406,-3.12474 0.33017,-0.5505 0.0216,-0.28604 0.59546,-0.24295 0.88254,-0.22144 0.88254,-0.22143 1.478,-0.4644 1.76507,-0.44286 0.28696,0.0215 0.30851,-0.26452 1.16948,-0.19989 1.49956,-0.75042 1.19277,-0.55951 2.16655,1.8884"
     style="fill:none;stroke:#646464;stroke-width:1;stroke-linecap:round;stroke-linejoin:round;stroke-miterlimit:4;stroke-opacity:1;stroke-dasharray:none" /></g><g
   id="Waterbody"
   style="fill:#c6ecff;fill-opacity:1;stroke:#0978ab;stroke-width:0.75;stroke-miterlimit:4;stroke-opacity:1;stroke-dasharray:none"><path
     id="path5635"
     d="m 798.78422,254.15887 c 0.24798,-0.32714 0.41958,-0.72773 0.76827,-0.96622 0.63271,-0.81446 1.21335,-1.67036 1.88091,-2.45704 0.25474,-0.29511 0.73127,-0.53904 1.07727,-0.2501 0.0698,0.25253 -0.46753,0.47425 -0.1214,0.72843 0.0984,0.17351 0.62866,0.12414 0.25552,0.23897 -0.3433,0.14062 -0.69342,0.30267 -0.92279,0.60599 -0.69312,0.7097 -1.05577,1.65988 -1.33987,2.59213 -0.37892,0.32058 0.38311,0.88037 0.50222,0.34339 0.11213,-0.23645 0.58145,-0.0636 0.28927,0.15056 -0.28268,0.3402 -0.26688,0.82988 0.0864,1.09409 0.15418,0.3702 -0.27675,0.57275 -0.56501,0.39712 -0.48624,-0.0598 -0.73337,0.41412 -1.10643,0.60844 -0.4431,0.26281 -0.78488,-0.19171 -1.1627,-0.34662 -0.3002,-0.11276 -0.51401,-0.51066 -0.0952,-0.62072 0.27387,-0.079 0.17423,-0.47169 -0.10801,-0.28718 -0.3918,0.18202 -0.90394,0.11328 -1.14765,0.49191 -0.40427,0.28132 -0.4192,-0.29285 -0.24281,-0.52095 0.26903,-0.47992 0.79028,-0.7276 1.16598,-1.11119 0.25991,-0.23251 0.51716,-0.46952 0.78598,-0.69101 z"
     style="fill:#c6ecff;fill-opacity:1;stroke:#0978ab;stroke-width:0.75;stroke-linecap:butt;stroke-linejoin:miter;stroke-miterlimit:4;stroke-opacity:1;stroke-dasharray:none" /><path
     id="path5633"
     d="m 783.28739,266.51786 c 0.77625,-0.58849 1.5525,-1.17699 2.32875,-1.76548 0.14327,-0.20961 0.65065,-0.42856 0.708,-0.0592 0.0591,0.215 0.24226,0.50825 0.50365,0.39894 0.0917,-0.16387 0.4964,0.0283 0.21318,0.0931 -0.24827,0.13141 -0.64753,0.25441 -0.62497,0.60052 0.0236,0.30156 0.17002,0.57216 0.27625,0.8499 -0.22199,0.37971 0.092,0.83327 -0.11203,1.21749 -0.10542,0.2862 -0.10538,0.64219 -0.36329,0.84745 -0.31424,0.0962 -0.69781,-0.12692 -0.96469,0.1306 -0.2963,0.19227 -0.59335,-0.0957 -0.88063,-0.15956 -0.38804,-0.10171 -0.7961,-0.083 -1.18921,-0.0229 -0.26518,-0.17387 -0.61785,-0.0999 -0.83935,0.0375 -0.35447,-0.0838 -0.39682,0.35753 -0.58206,0.52945 -0.0686,-0.11692 0.0972,-0.37369 0.17727,-0.51775 0.10698,-0.18047 0.27487,-0.3147 0.39871,-0.47885 0.12289,-0.2839 0.26969,-0.61307 0.61049,-0.66923 0.3001,-0.15786 0.16671,-0.5466 0.0742,-0.73977 0.0681,-0.11571 0.21186,-0.16576 0.26571,-0.29219 z"
     style="fill:#c6ecff;fill-opacity:1;stroke:#0978ab;stroke-width:0.75;stroke-linecap:butt;stroke-linejoin:miter;stroke-miterlimit:4;stroke-opacity:1;stroke-dasharray:none" /><path
     style="fill:none;stroke:#0978ab;stroke-width:0.75000000000000000;stroke-linecap:butt;stroke-linejoin:miter;stroke-miterlimit:4;stroke-opacity:1;stroke-dasharray:1.50000002000000010, 0.75000001000000005;stroke-dashoffset:0"
     d="m 793.58859,225.62454 c 0.55483,0.20608 1.10967,0.41216 1.6645,0.61824 0.11835,0.95083 1.43643,0.33081 1.6081,1.28142 0.45548,0.64485 1.42714,0.0532 2.08298,0.37014 0.7895,0.10099 1.09927,0.86078 1.54994,1.40619 0.50461,0.66478 1.01326,1.32808 1.46456,2.03088 0.91995,-0.52256 1.14713,0.4219 1.55762,1.05932 0.91404,0.68108 1.84607,1.33984 2.81765,1.93679 0.50915,0.64277 0.79619,1.32305 1.75089,1.12162 0.67974,-0.14063 1.27245,-0.49699 1.99453,-0.14755 0.74822,-0.10135 1.5413,-0.29259 1.5853,-1.14231 0.8778,0.20638 1.60561,-0.0509 2.20483,-0.71122 0.89021,-0.17506 0.98642,-1.00258 1.44855,-1.59835 0.3226,-0.14909 0.67479,-0.23415 1.00293,-0.37569"
     id="path3643" /><path
     style="fill:none;stroke:#0978ab;stroke-width:0.75000000000000000;stroke-linecap:butt;stroke-linejoin:miter;stroke-miterlimit:4;stroke-opacity:1;stroke-dasharray:1.50000002000000010, 0.75000001000000005;stroke-dashoffset:0"
     d="m 807.0473,235.32623 c -0.27027,0.72599 -0.59962,1.45863 -1.1638,2.00653 -0.322,0.60293 0.23789,1.63777 -0.67596,1.87664 -0.5888,0.15609 -0.87427,0.6372 -0.99115,1.20358 -0.055,0.67062 -0.93639,0.57928 -1.14745,1.11119 -0.17986,0.47041 -0.35972,0.94082 -0.53958,1.41123 0.28931,0.62823 0.33412,1.45897 -0.42149,1.74963 -0.40054,0.63982 -0.11001,1.43989 -0.0976,2.13316 0.20789,0.58843 0.93009,0.84717 1.05698,1.46965 -0.10726,0.73268 -1.03622,0.9252 -1.33922,1.55418 -0.0774,0.15861 -0.10586,0.33707 -0.10182,0.51236"
     id="path3645" /><path
     style="fill:none;stroke:#0978ab;stroke-width:0.75000000000000000;stroke-linecap:butt;stroke-linejoin:miter;stroke-miterlimit:4;stroke-opacity:1;stroke-dasharray:1.50000002000000010, 0.75000001000000005;stroke-dashoffset:0"
     d="m 796.48958,256.39411 c -1.24196,1.29992 -2.37815,2.69473 -3.56679,4.04237 -0.55703,0.15914 -1.27106,0.0437 -1.6597,0.56588 -0.30385,0.25238 -0.52539,0.63369 -0.88811,0.79793 -0.56159,0.14779 -1.12319,0.29558 -1.68479,0.44337 -0.46305,0.91984 -0.94202,1.83763 -1.54817,2.67308 -0.11803,0.0443 -0.2361,0.0885 -0.35413,0.1328"
     id="path3647" /><path
     style="fill:none;stroke:#0978ab;stroke-width:0.75000000000000000;stroke-linecap:butt;stroke-linejoin:miter;stroke-miterlimit:4;stroke-opacity:1;stroke-dasharray:1.50000002000000010, 0.75000001000000005;stroke-dashoffset:0"
     d="m 781.50903,269.61504 c -0.53326,0.6574 -1.3271,1.04429 -2.13849,1.23403 -0.39613,0.29847 0.11777,0.92923 -0.34433,1.23037 -0.4771,0.64784 -1.08931,1.2083 -1.82367,1.547 -0.84255,0.60204 -1.64051,1.33095 -2.07507,2.2898 -0.17066,0.29375 -0.34055,0.58797 -0.51424,0.87995"
     id="path3649" /></g></svg>